<svg width="42" height="42" viewBox="0 0 42 42" fill="none" xmlns="http://www.w3.org/2000/svg">
<path fill-rule="evenodd" clip-rule="evenodd" d="M6.60419 15.5354C7.20556 8.23978 13.3022 2.625 20.6226 2.625H21.3785C28.6989 2.625 34.7955 8.23978 35.3969 15.5354C35.7207 19.4635 34.5073 23.3639 32.0124 26.4151L23.6246 36.6732C22.2683 38.3318 19.7327 38.3318 18.3765 36.6732L9.98866 26.4151C7.49375 23.3639 6.28041 19.4635 6.60419 15.5354ZM27.1786 14.9281C27.6911 14.4155 27.6911 13.5845 27.1786 13.0719C26.666 12.5594 25.835 12.5594 25.3224 13.0719L20.1255 18.2688L17.5536 15.6969C17.041 15.1844 16.21 15.1844 15.6974 15.6969C15.1848 16.2095 15.1848 17.0405 15.6974 17.5531L19.1974 21.0531C19.71 21.5656 20.541 21.5656 21.0536 21.0531L27.1786 14.9281Z" fill="white"/>
</svg>
