<svg width="45" height="42" viewBox="0 0 45 42" fill="none" xmlns="http://www.w3.org/2000/svg">
<path d="M21 6.5625C17.3756 6.5625 14.4375 9.50063 14.4375 13.125C14.4375 16.7494 17.3756 19.6875 21 19.6875C24.6244 19.6875 27.5625 16.7494 27.5625 13.125C27.5625 9.50063 24.6244 6.5625 21 6.5625Z" fill="white"/>
<path d="M14 23.1875C10.3756 23.1875 7.4375 26.1256 7.4375 29.75V31.8295C7.4375 33.1476 8.3928 34.2716 9.69373 34.484C17.1817 35.7065 24.8183 35.7065 32.3063 34.484C33.6072 34.2716 34.5625 33.1476 34.5625 31.8295V29.75C34.5625 26.1256 31.6244 23.1875 28 23.1875H27.4035C27.0806 23.1875 26.7598 23.2386 26.4529 23.3388L24.9382 23.8334C22.3792 24.6689 19.6208 24.6689 17.0618 23.8334L15.5471 23.3388C15.2402 23.2386 14.9194 23.1875 14.5965 23.1875H14Z" fill="white"/>
</svg>
