<svg width="42" height="42" viewBox="0 0 42 42" fill="none" xmlns="http://www.w3.org/2000/svg">
<path fill-rule="evenodd" clip-rule="evenodd" d="M12.687 12.4775V13.1248H10.0601C9.27745 13.1248 8.61324 13.6988 8.49979 14.4731L8.11711 17.0849C7.36982 22.1852 7.36982 27.3671 8.11711 32.4673C8.45195 34.7526 10.2948 36.5194 12.5922 36.7576L13.6927 36.8718C18.5509 37.3756 23.4482 37.3756 28.3064 36.8718L29.4069 36.7576C31.7043 36.5194 33.5471 34.7526 33.882 32.4673C34.6292 27.3671 34.6292 22.1852 33.882 17.0849L33.4993 14.4731C33.3858 13.6988 32.7216 13.1248 31.939 13.1248H29.312V12.4775C29.312 8.68399 26.7437 5.37169 23.0697 4.42694C21.7117 4.07774 20.2874 4.07774 18.9294 4.42694C15.2554 5.37169 12.687 8.68398 12.687 12.4775ZM22.416 6.96924C21.4868 6.73031 20.5123 6.73031 19.5831 6.96924C17.0693 7.61564 15.312 9.88195 15.312 12.4775V13.1248H26.687V12.4775C26.687 9.88195 24.9298 7.61564 22.416 6.96924ZM15.312 15.7498C15.312 15.0249 14.7244 14.4373 13.9995 14.4373C13.2747 14.4373 12.687 15.0249 12.687 15.7498V19.2498C12.687 19.9747 13.2747 20.5623 13.9995 20.5623C14.7244 20.5623 15.312 19.9747 15.312 19.2498V15.7498ZM29.312 15.7498C29.312 15.0249 28.7244 14.4373 27.9995 14.4373C27.2747 14.4373 26.687 15.0249 26.687 15.7498V19.2498C26.687 19.9747 27.2747 20.5623 27.9995 20.5623C28.7244 20.5623 29.312 19.9747 29.312 19.2498V15.7498Z" fill="white"/>
</svg>
