<svg width="43" height="43" viewBox="0 0 43 43" fill="none" xmlns="http://www.w3.org/2000/svg">
<path d="M19.75 7.53906C16.1256 7.53906 13.1875 10.4772 13.1875 14.1016C13.1875 17.7259 16.1256 20.6641 19.75 20.6641C23.3744 20.6641 26.3125 17.7259 26.3125 14.1016C26.3125 10.4772 23.3744 7.53906 19.75 7.53906Z" fill="white"/>
<path d="M12.75 24.1641C9.12563 24.1641 6.1875 27.1022 6.1875 30.7266V32.8061C6.1875 34.1242 7.1428 35.2481 8.44373 35.4605C15.9317 36.683 23.5683 36.683 31.0563 35.4605C32.3572 35.2481 33.3125 34.1242 33.3125 32.8061V30.7266C33.3125 27.1022 30.3744 24.1641 26.75 24.1641H26.1535C25.8306 24.1641 25.5098 24.2151 25.2029 24.3153L23.6882 24.8099C21.1292 25.6455 18.3708 25.6455 15.8118 24.8099L14.2971 24.3153C13.9902 24.2151 13.6694 24.1641 13.3465 24.1641H12.75Z" fill="white"/>
<path d="M34.625 11.9141C35.3499 11.9141 35.9375 12.5017 35.9375 13.2266V16.2891H39C39.7249 16.2891 40.3125 16.8767 40.3125 17.6016C40.3125 18.3264 39.7249 18.9141 39 18.9141H35.9375V21.9766C35.9375 22.7014 35.3499 23.2891 34.625 23.2891C33.9001 23.2891 33.3125 22.7014 33.3125 21.9766V18.9141H30.25C29.5251 18.9141 28.9375 18.3264 28.9375 17.6016C28.9375 16.8767 29.5251 16.2891 30.25 16.2891H33.3125V13.2266C33.3125 12.5017 33.9001 11.9141 34.625 11.9141Z" fill="white"/>
</svg>
