<svg width="88" height="88" viewBox="0 0 88 88" fill="none" xmlns="http://www.w3.org/2000/svg">
<path fill-rule="evenodd" clip-rule="evenodd" d="M29.3405 16.6944C39.227 15.9493 49.1574 15.9982 59.0361 16.8406L64.9898 17.3483C69.487 17.7319 73.1367 21.1449 73.8206 25.6063L74.1962 28.0568C75.4709 36.3725 75.3517 44.8423 73.8437 53.1189C73.0997 57.2026 69.5423 60.1704 65.3913 60.1704H32.4778C31.7206 60.1704 30.9751 60.358 30.3081 60.7165L15.9686 68.4227C15.1163 68.8808 14.0861 68.8572 13.2556 68.3607C12.4252 67.8643 11.9167 66.9679 11.9167 66.0004V34.7703C11.9167 25.3155 19.2039 17.4584 28.632 16.7478L29.3405 16.6944ZM29.3334 34.8337C26.8021 34.8337 24.7501 36.8858 24.7501 39.4171C24.7501 41.9484 26.8021 44.0004 29.3334 44.0004C31.8647 44.0004 33.9167 41.9484 33.9167 39.4171C33.9167 36.8858 31.8647 34.8337 29.3334 34.8337ZM44.0001 34.8337C41.4688 34.8337 39.4167 36.8858 39.4167 39.4171C39.4167 41.9484 41.4688 44.0004 44.0001 44.0004C46.5314 44.0004 48.5834 41.9484 48.5834 39.4171C48.5834 36.8858 46.5314 34.8337 44.0001 34.8337ZM54.0834 39.4171C54.0834 36.8858 56.1354 34.8337 58.6667 34.8337C61.1981 34.8337 63.2501 36.8858 63.2501 39.4171C63.2501 41.9484 61.1981 44.0004 58.6667 44.0004C56.1354 44.0004 54.0834 41.9484 54.0834 39.4171Z" fill="#F87541"/>
</svg>
