<svg width="166" height="106" viewBox="0 0 166 106" fill="none" xmlns="http://www.w3.org/2000/svg">
<path fill-rule="evenodd" clip-rule="evenodd" d="M4.83301 13.9167C4.83301 11.6005 6.07536 9.35378 8.38046 7.61848C10.6864 5.88252 13.9629 4.75 17.6663 4.75H136.333C140.036 4.75 143.313 5.88252 145.619 7.61848C147.924 9.35378 149.166 11.6005 149.166 13.9167V54.2367C146.799 53.4348 144.262 53 141.623 53C136.155 53 131.123 54.8677 127.13 58H55.8972C54.7926 58 53.8972 58.8954 53.8972 60C53.8972 61.1046 54.7926 62 55.8972 62H123.129C119.993 65.9938 118.123 71.0285 118.123 76.5C118.123 77.3159 118.165 78.1222 118.246 78.9167H77.0003H17.6663C13.9629 78.9167 10.6864 77.7841 8.38046 76.0482C6.07536 74.3129 4.83301 72.0662 4.83301 69.75V13.9167ZM153.166 13.9167V56.0255C160.304 60.0585 165.123 67.7165 165.123 76.5C165.123 89.4787 154.602 100 141.623 100C130.869 100 121.802 92.7764 119.01 82.9167H79.0003V101.25H106.667C107.772 101.25 108.667 102.145 108.667 103.25C108.667 104.355 107.772 105.25 106.667 105.25H77.0003H47.3336C46.229 105.25 45.3336 104.355 45.3336 103.25C45.3336 102.145 46.229 101.25 47.3336 101.25H75.0003V82.9167H17.6663C13.1776 82.9167 9.03735 81.5494 5.97472 79.2439C2.91121 76.9376 0.833008 73.601 0.833008 69.75V13.9167C0.833008 10.0656 2.91121 6.72903 5.97472 4.4228C9.03735 2.11722 13.1776 0.75 17.6663 0.75H136.333C140.822 0.75 144.962 2.11722 148.025 4.4228C151.088 6.72903 153.166 10.0656 153.166 13.9167ZM53.8972 30C53.8972 28.8954 54.7926 28 55.8972 28H135.722C136.826 28 137.722 28.8954 137.722 30C137.722 31.1046 136.826 32 135.722 32H55.8972C54.7926 32 53.8972 31.1046 53.8972 30ZM25.9756 52.2619C26.1402 52.0825 26.344 52 26.5364 52H36.6291C37.1814 52 37.6291 51.5523 37.6291 51C37.6291 50.4477 37.1814 50 36.6291 50H26.5364C25.7553 50 25.0257 50.3389 24.5019 50.9097C23.9809 51.4776 23.7013 52.2308 23.7013 53V67C23.7013 67.7692 23.9809 68.5224 24.5019 69.0903C25.0257 69.6611 25.7553 70 26.5364 70H39.3817C40.1628 70 40.8924 69.6611 41.4161 69.0903C41.9372 68.5224 42.2168 67.7692 42.2168 67V60C42.2168 59.4477 41.7691 59 41.2168 59C40.6645 59 40.2168 59.4477 40.2168 60V67C40.2168 67.2917 40.1097 67.5559 39.9425 67.7381C39.7779 67.9175 39.574 68 39.3817 68H26.5364C26.344 68 26.1402 67.9175 25.9756 67.7381C25.8084 67.5559 25.7013 67.2917 25.7013 67V53C25.7013 52.7083 25.8084 52.4441 25.9756 52.2619ZM42.8104 51.2632C43.2173 51.6365 43.2445 52.2691 42.8711 52.6761L33.6959 62.6761C33.5065 62.8825 33.2392 63 32.959 63C32.6789 63 32.4116 62.8825 32.2222 62.6761L29.4696 59.6761C29.0962 59.2691 29.1234 58.6365 29.5304 58.2632C29.9373 57.8898 30.5699 57.917 30.9433 58.3239L32.959 60.5209L41.3974 51.3239C41.7708 50.917 42.4034 50.8898 42.8104 51.2632ZM141.623 96C152.393 96 161.123 87.2696 161.123 76.5C161.123 65.7304 152.393 57 141.623 57C130.854 57 122.123 65.7304 122.123 76.5C122.123 87.2696 130.854 96 141.623 96ZM43.7074 21.2929C43.3169 20.9024 42.6837 20.9024 42.2932 21.2929L33.0003 30.5858L30.7074 28.2929C30.3169 27.9024 29.6837 27.9024 29.2932 28.2929C28.9026 28.6834 28.9026 29.3166 29.2932 29.7071L32.2932 32.7071C32.6837 33.0976 33.3169 33.0976 33.7074 32.7071L43.7074 22.7071C44.0979 22.3166 44.0979 21.6834 43.7074 21.2929ZM26.0003 22C25.7351 22 25.4807 22.1054 25.2932 22.2929C25.1056 22.4804 25.0003 22.7348 25.0003 23V37C25.0003 37.2652 25.1056 37.5196 25.2932 37.7071C25.4807 37.8946 25.7351 38 26.0003 38H40.0003C40.2655 38 40.5198 37.8946 40.7074 37.7071C40.8949 37.5196 41.0003 37.2652 41.0003 37V30C41.0003 29.4477 41.448 29 42.0003 29C42.5526 29 43.0003 29.4477 43.0003 30V37C43.0003 37.7957 42.6842 38.5587 42.1216 39.1213C41.559 39.6839 40.7959 40 40.0003 40H26.0003C25.2046 40 24.4416 39.6839 23.879 39.1213C23.3163 38.5587 23.0003 37.7957 23.0003 37V23C23.0003 22.2044 23.3163 21.4413 23.879 20.8787C24.4416 20.3161 25.2046 20 26.0003 20H37.0003C37.5526 20 38.0003 20.4477 38.0003 21C38.0003 21.5523 37.5526 22 37.0003 22H26.0003ZM149 86V82H147C146.448 82 146 81.5523 146 81C146 80.4477 146.448 80 147 80H150H153C153.553 80 154 80.4477 154 81C154 81.5523 153.553 82 153 82H151V86C151 86.5523 150.553 87 150 87C149.448 87 149 86.5523 149 86ZM135 86V80H137C137.553 80 138 79.5523 138 79C138 78.4477 137.553 78 137 78H134H131C130.448 78 130 78.4477 130 79C130 79.5523 130.448 80 131 80H133V86C133 86.5523 133.448 87 134 87C134.553 87 135 86.5523 135 86ZM143 77C143 76.4477 142.553 76 142 76C141.448 76 141 76.4477 141 77V86C141 86.5523 141.448 87 142 87C142.553 87 143 86.5523 143 86V77ZM138 73C138 72.4477 138.448 72 139 72H141V68C141 67.4477 141.448 67 142 67C142.553 67 143 67.4477 143 68V72H145C145.553 72 146 72.4477 146 73C146 73.5523 145.553 74 145 74H142H139C138.448 74 138 73.5523 138 73ZM151 68C151 67.4477 150.553 67 150 67C149.448 67 149 67.4477 149 68V77C149 77.5523 149.448 78 150 78C150.553 78 151 77.5523 151 77V68ZM135 68C135 67.4477 134.553 67 134 67C133.448 67 133 67.4477 133 68V75C133 75.5523 133.448 76 134 76C134.553 76 135 75.5523 135 75V68Z" fill="black"/>
</svg>
