<svg width="119" height="83" viewBox="0 0 119 83" fill="none" xmlns="http://www.w3.org/2000/svg">
<path fill-rule="evenodd" clip-rule="evenodd" d="M4 2C4 0.89543 3.10457 0 2 0C0.89543 0 0 0.89543 0 2V73C0 78.5228 4.47715 83 10 83H117C118.105 83 119 82.1046 119 81C119 79.8954 118.105 79 117 79H10C6.68629 79 4 76.3137 4 73V2ZM69 47C79.4934 47 88 38.4934 88 28C88 17.5066 79.4934 9 69 9C58.5066 9 50 17.5066 50 28C50 38.4934 58.5066 47 69 47ZM69 51C75.4842 51 81.3417 48.3167 85.5227 44H107C108.105 44 109 43.1046 109 42C109 40.8954 108.105 40 107 40H88.6253C90.766 36.5065 92 32.3974 92 28C92 15.2975 81.7025 5 69 5C56.9713 5 47.0993 14.2339 46.0858 26H18C16.8954 26 16 26.8954 16 28C16 29.1046 16.8954 30 18 30H46.0858C47.0993 41.7661 56.9713 51 69 51ZM70.5 11.458C70.5 10.9057 70.0523 10.458 69.5 10.458C68.9477 10.458 68.5 10.9057 68.5 11.458V15.792H65.8542C64.1026 15.792 62.4228 16.4878 61.1843 17.7263C59.9458 18.9648 59.25 20.6446 59.25 22.3962C59.25 24.1477 59.9458 25.8275 61.1843 27.066C62.4228 28.3045 64.1026 29.0003 65.8542 29.0003H68.5V36.2087H60.75C59.9216 36.2087 59.25 36.8802 59.25 37.7087C59.25 38.5371 59.9216 39.2087 60.75 39.2087H68.5V43.5413C68.5 44.0936 68.9477 44.5413 69.5 44.5413C70.0523 44.5413 70.5 44.0936 70.5 43.5413V39.2087H73.1458C74.8974 39.2087 76.5772 38.5129 77.8157 37.2743C79.0542 36.0358 79.75 34.356 79.75 32.6045C79.75 30.853 79.0542 29.1732 77.8157 27.9346C76.5772 26.6961 74.8974 26.0003 73.1458 26.0003H70.5V18.792H76.7917C77.6201 18.792 78.2917 18.1204 78.2917 17.292C78.2917 16.4636 77.6201 15.792 76.7917 15.792H70.5V11.458ZM68.5 18.792H65.8542C64.8983 18.792 63.9815 19.1717 63.3056 19.8476C62.6297 20.5235 62.25 21.4403 62.25 22.3962C62.25 23.352 62.6297 24.2688 63.3056 24.9447C63.9815 25.6206 64.8983 26.0003 65.8542 26.0003H68.5V18.792ZM70.5 29.0003V36.2087H73.1458C74.1017 36.2087 75.0185 35.8289 75.6944 35.153C76.3703 34.4771 76.75 33.5604 76.75 32.6045C76.75 31.6486 76.3703 30.7319 75.6944 30.056C75.0185 29.3801 74.1017 29.0003 73.1458 29.0003H70.5ZM102.688 51.4722C101.913 50.6854 100.647 50.6761 99.8599 51.4514C99.0731 52.2267 99.0638 53.493 99.8391 54.2797L105.511 60.0358L47.7616 60.0363L47.864 46.1416C47.8679 45.6086 47.6589 45.0961 47.2834 44.7178C46.908 44.3396 46.397 44.1268 45.864 44.1268L11.4995 44.1269C10.395 44.1269 9.49954 45.0224 9.49954 46.1269C9.49954 47.2315 10.395 48.1269 11.4995 48.1269L43.8492 48.1268L43.7469 62.0215C43.7429 62.5545 43.9519 63.067 44.3274 63.4453C44.7029 63.8236 45.2138 64.0363 45.7468 64.0363L106.323 64.0358L99.7192 70.5427C98.9325 71.318 98.9231 72.5843 99.6984 73.3711C100.474 74.1579 101.74 74.1672 102.527 73.3919L112.143 63.9166C112.93 63.1413 112.939 61.875 112.164 61.0882L102.688 51.4722Z" fill="black"/>
</svg>
