<svg width="114" height="96" viewBox="0 0 114 96" fill="none" xmlns="http://www.w3.org/2000/svg">
<path fill-rule="evenodd" clip-rule="evenodd" d="M63.584 2C63.584 0.89543 62.6886 0 61.584 0C60.4794 0 59.584 0.89543 59.584 2V9.16602H26.916V2C26.916 0.89543 26.0206 0 24.916 0C23.8114 0 22.916 0.89543 22.916 2V9.16602H11.1667C4.99949 9.16602 0 14.1655 0 20.3327V38.666V84.4994C0 90.6665 4.99949 95.666 11.1667 95.666H75.3333C81.5005 95.666 86.5 90.6665 86.5 84.4994V53.5288C87.7203 53.7289 88.973 53.833 90.25 53.833C102.953 53.833 113.25 43.5356 113.25 30.833C113.25 18.1305 102.953 7.83301 90.25 7.83301C86.5888 7.83301 83.1274 8.68845 80.0548 10.2104C78.6207 9.54029 77.0207 9.16602 75.3333 9.16602H63.584V2ZM69.4519 40.666C72.0469 46.145 76.7431 50.4347 82.5 52.4946V84.4994C82.5 88.4574 79.2914 91.666 75.3333 91.666H11.1667C7.20862 91.666 4 88.4574 4 84.4994V40.666H69.4519ZM67.25 30.833C67.25 32.8484 67.5092 34.8032 67.9961 36.666H4V20.3327C4 16.3746 7.20863 13.166 11.1667 13.166H22.916V20.3333C22.916 21.4379 23.8114 22.3333 24.916 22.3333C26.0206 22.3333 26.916 21.4379 26.916 20.3333V13.166H59.584V20.3333C59.584 21.4379 60.4794 22.3333 61.584 22.3333C62.6886 22.3333 63.584 21.4379 63.584 20.3333V13.166H75.3333C75.3956 13.166 75.4576 13.1668 75.5195 13.1684C70.4656 17.3874 67.25 23.7347 67.25 30.833ZM104.421 43.4893C100.942 47.3824 95.8822 49.833 90.25 49.833C79.7566 49.833 71.25 41.3264 71.25 30.833C71.25 26.4779 72.7153 22.465 75.1797 19.2605L80.6568 23.7986C80.5533 24.2647 80.5 24.7442 80.5 25.2292C80.5 26.9807 81.1958 28.6605 82.4343 29.899C83.6728 31.1375 85.3526 31.8333 87.1042 31.8333H89.75V39.0417H82C81.1716 39.0417 80.5 39.7132 80.5 40.5417C80.5 41.3701 81.1716 42.0417 82 42.0417H89.75V46.3743C89.75 46.9266 90.1977 47.3743 90.75 47.3743C91.3023 47.3743 91.75 46.9266 91.75 46.3743V42.0417H94.3958C96.1474 42.0417 97.8272 41.3459 99.0657 40.1074C99.2586 39.9145 99.4383 39.7109 99.6043 39.498L104.421 43.4893ZM105.674 41.9301L100.593 37.7199C100.86 36.9959 101 36.2239 101 35.4375C101 33.686 100.304 32.0062 99.0657 30.7677C97.8272 29.5291 96.1474 28.8333 94.3958 28.8333H91.75V21.625H98.0417C98.8701 21.625 99.5417 20.9534 99.5417 20.125C99.5417 19.2966 98.8701 18.625 98.0417 18.625H91.75V14.291C91.75 13.7387 91.3023 13.291 90.75 13.291C90.1977 13.291 89.75 13.7387 89.75 14.291V18.625H87.1042C85.3526 18.625 83.6728 19.3208 82.4343 20.5593C82.0456 20.9481 81.7103 21.3803 81.4332 21.8446L76.4805 17.7409C79.9418 14.1016 84.831 11.833 90.25 11.833C100.743 11.833 109.25 20.3396 109.25 30.833C109.25 34.9753 107.924 38.808 105.674 41.9301ZM84.5556 27.7777C84.1353 27.3573 83.8294 26.8438 83.6583 26.2856L86.7066 28.8114C85.897 28.7215 85.1372 28.3592 84.5556 27.7777ZM83.7949 23.8014L89.75 28.7357V21.625H87.1042C86.1483 21.625 85.2316 22.0047 84.5556 22.6806C84.2303 23.0059 83.9736 23.387 83.7949 23.8014ZM91.75 39.0417V32.9902L97.2923 37.5824C97.1871 37.7245 97.0709 37.8595 96.9444 37.986C96.2685 38.6619 95.3517 39.0417 94.3958 39.0417H91.75ZM93.4885 31.8333L97.9976 35.5694C97.9992 35.5255 98 35.4816 98 35.4375C98 34.4816 97.6203 33.5649 96.9444 32.889C96.2685 32.2131 95.3517 31.8333 94.3958 31.8333H93.4885ZM69.4142 50.9188C69.6067 51.1113 69.7518 51.3333 69.8494 51.5703L69.9997 52.2989L70 52.333V52.3369V65.833C70 66.9376 69.1046 67.833 68 67.833C66.8954 67.833 66 66.9376 66 65.833V57.1614L48.0392 75.1222C47.2582 75.9033 45.9918 75.9033 45.2108 75.1222L35.375 65.2864L19.9142 80.7472C19.1332 81.5283 17.8668 81.5283 17.0858 80.7472C16.3047 79.9662 16.3047 78.6998 17.0858 77.9188L33.9608 61.0438C34.7418 60.2627 36.0082 60.2627 36.7892 61.0438L46.625 70.8796L63.1716 54.333H54.5C53.3954 54.333 52.5 53.4376 52.5 52.333C52.5 51.2284 53.3954 50.333 54.5 50.333H67.998H68C68.032 50.333 68.064 50.3338 68.0959 50.3353C68.3243 50.3462 68.5511 50.396 68.7656 50.4848C69.0015 50.5824 69.2225 50.727 69.4142 50.9188Z" fill="black"/>
<path d="M68 52L46.625 73.375L35.375 62.125L18.5 79" stroke="black" stroke-width="4" stroke-linecap="round" stroke-linejoin="round"/>
</svg>
