<svg width="714" height="1033" viewBox="0 0 714 1033" fill="none" xmlns="http://www.w3.org/2000/svg">
<rect x="360.517" y="0.00292969" width="339.032" height="348.778" rx="50" transform="rotate(26.962 360.517 0.00292969)" fill="#F75D21"/>
<rect x="513.965" y="549.727" width="327.604" height="374.728" rx="50" transform="rotate(26.962 513.965 549.727)" fill="#F4865C"/>
<mask id="path-3-inside-1_1687_22390" fill="white">
<path fill-rule="evenodd" clip-rule="evenodd" d="M724.249 185.029C699.637 172.509 669.534 182.312 657.014 206.925L534.115 448.523C521.595 473.136 491.493 482.939 466.88 470.419L236.843 353.401C212.231 340.881 182.128 350.684 169.608 375.297L22.6754 664.142C10.1551 688.755 19.958 718.857 44.5708 731.377L283.652 852.996C308.265 865.516 338.367 855.713 350.888 831.1L484.581 568.281C497.102 543.668 527.204 533.865 551.817 546.385L770.527 657.641C795.14 670.161 825.242 660.358 837.763 635.746L973.901 368.121C986.421 343.509 976.618 313.406 952.005 300.886L724.249 185.029Z"/>
</mask>
<path d="M236.843 353.401L235.03 356.967L236.843 353.401ZM44.5708 731.377L42.7572 734.943L44.5708 731.377ZM283.652 852.996L285.466 849.431L283.652 852.996ZM350.888 831.1L347.322 829.287L350.888 831.1ZM770.527 657.641L768.714 661.206L770.527 657.641ZM551.817 546.385L553.63 542.82L551.817 546.385ZM466.88 470.419L468.694 466.853L466.88 470.419ZM660.579 208.738C672.098 186.094 699.792 177.076 722.436 188.594L726.063 181.464C699.481 167.942 666.971 178.529 653.449 205.111L660.579 208.738ZM537.68 450.337L660.579 208.738L653.449 205.111L530.55 446.71L537.68 450.337ZM235.03 356.967L465.066 473.984L468.694 466.853L238.657 349.836L235.03 356.967ZM173.173 377.11C184.692 354.467 212.386 345.448 235.03 356.967L238.657 349.836C212.075 336.314 179.565 346.901 166.043 373.483L173.173 377.11ZM26.2406 665.956L173.173 377.11L166.043 373.483L19.1101 662.329L26.2406 665.956ZM46.3844 727.812C23.7407 716.294 14.7219 688.599 26.2406 665.956L19.1101 662.329C5.58821 688.91 16.1754 721.421 42.7572 734.943L46.3844 727.812ZM285.466 849.431L46.3844 727.812L42.7572 734.943L281.839 856.561L285.466 849.431ZM347.322 829.287C335.804 851.931 308.11 860.949 285.466 849.431L281.839 856.561C308.42 870.083 340.931 859.496 354.453 832.914L347.322 829.287ZM481.016 566.467L347.322 829.287L354.453 832.914L488.147 570.094L481.016 566.467ZM772.341 654.076L553.63 542.82L550.003 549.95L768.714 661.206L772.341 654.076ZM834.198 633.932C822.679 656.576 794.985 665.595 772.341 654.076L768.714 661.206C795.296 674.728 827.806 664.141 841.328 637.559L834.198 633.932ZM970.335 366.308L834.198 633.932L841.328 637.559L977.466 369.935L970.335 366.308ZM950.192 304.451C972.835 315.97 981.854 343.664 970.335 366.308L977.466 369.935C990.988 343.353 980.401 310.843 953.819 297.321L950.192 304.451ZM722.436 188.594L950.192 304.451L953.819 297.321L726.063 181.464L722.436 188.594ZM488.147 570.094C499.665 547.45 527.359 538.432 550.003 549.95L553.63 542.82C527.049 529.298 494.538 539.885 481.016 566.467L488.147 570.094ZM530.55 446.71C519.031 469.353 491.337 478.372 468.694 466.853L465.066 473.984C491.648 487.506 524.159 476.919 537.68 450.337L530.55 446.71Z" fill="black" mask="url(#path-3-inside-1_1687_22390)"/>
<path d="M671.825 253.565C684.346 228.953 714.448 219.15 739.061 231.67L910.97 319.119C935.583 331.639 945.386 361.741 932.866 386.354L828.71 591.106C816.19 615.719 786.088 625.522 761.475 613.001L545 502.883L671.825 253.565Z" fill="#D9D9D9"/>
<path d="M179.219 415.565C191.739 390.953 221.842 381.15 246.454 393.67L486.77 515.916L342.551 799.425C330.031 824.038 299.929 833.841 275.316 821.321L79.566 721.744C54.9533 709.224 45.1504 679.122 57.6706 654.509L179.219 415.565Z" fill="#D9D9D9"/>
</svg>
