<svg width="1158" height="1290" viewBox="0 0 1158 1290" fill="none" xmlns="http://www.w3.org/2000/svg">
<rect x="-41.1597" y="0.912109" width="1317.85" height="814.392" rx="50" transform="rotate(24.5923 -41.1597 0.912109)" fill="#131313"/>
<path d="M30.8448 627.904H213V678.875H-38V627.904L143.663 399.482H-29.7007V348.511H212.507V399.482L30.8448 627.904Z" fill="#212121" fill-opacity="0.59"/>
<path d="M432.999 419.233H488.002V679.018H432.999V636.032C412.231 668.469 382.538 684.687 343.922 684.687C314.389 684.687 291.186 675.71 274.312 657.757C257.439 639.803 249.002 614.93 249.002 583.137V419.233H304.005V572.337C304.005 613.262 323.149 633.728 361.438 633.736C384.163 633.736 401.769 626.729 414.256 612.714C426.743 598.699 432.991 579.098 432.999 553.911V419.233Z" fill="#212121" fill-opacity="0.59"/>
<path d="M575.231 459.297H570.029L588.405 678.875H532.574L550.95 459.297H545.839C544.773 459.307 543.715 459.12 542.726 458.745C541.738 458.37 540.838 457.816 540.078 457.114L530.48 448.282C529.7 447.567 529.08 446.713 528.657 445.77C528.234 444.828 528.016 443.815 528.016 442.792C528.016 441.769 528.234 440.757 528.657 439.814C529.08 438.871 529.7 438.017 530.48 437.303L540.078 428.52C541.615 427.106 543.687 426.321 545.839 426.336H553.746L560.496 345.604L567.233 426.336H575.205C577.355 426.335 579.42 427.118 580.966 428.52L590.551 437.303C591.331 438.017 591.951 438.871 592.374 439.814C592.798 440.757 593.016 441.769 593.016 442.792C593.016 443.815 592.798 444.828 592.374 445.77C591.951 446.713 591.331 447.567 590.551 448.282L580.966 457.114C579.431 458.515 577.373 459.298 575.231 459.297Z" fill="#212121" fill-opacity="0.59"/>
<path d="M813.786 419.233H869.019V679.018H813.786V636.032C792.921 668.469 763.105 684.687 724.336 684.687C694.671 684.687 671.37 675.71 654.435 657.757C637.499 639.803 629.027 614.93 629.019 583.137V419.233H684.251V572.337C684.251 613.262 703.476 633.728 741.925 633.736C764.745 633.736 782.424 626.729 794.964 612.714C807.503 598.699 813.777 579.098 813.786 553.911V419.233Z" fill="#212121" fill-opacity="0.59"/>
</svg>
