<svg width="870" height="340" viewBox="0 0 870 340" fill="none" xmlns="http://www.w3.org/2000/svg">
<path d="M30.8448 282.904H213V333.875H-38V282.904L143.663 54.4816H-29.7007V3.51074H212.507V54.4816L30.8448 282.904Z" fill="#212121" fill-opacity="0.59"/>
<path d="M432.999 74.2334H488.002V334.018H432.999V291.032C412.231 323.469 382.538 339.687 343.922 339.687C314.389 339.687 291.186 330.71 274.312 312.757C257.439 294.803 249.002 269.93 249.002 238.137V74.2334H304.005V227.337C304.005 268.262 323.149 288.728 361.438 288.736C384.163 288.736 401.769 281.729 414.256 267.714C426.743 253.699 432.991 234.098 432.999 208.911V74.2334Z" fill="#212121" fill-opacity="0.59"/>
<path d="M575.231 114.297H570.029L588.405 333.875H532.574L550.95 114.297H545.839C544.773 114.307 543.715 114.12 542.726 113.745C541.738 113.37 540.838 112.816 540.078 112.114L530.48 103.282C529.7 102.567 529.08 101.713 528.657 100.77C528.234 99.8277 528.016 98.8151 528.016 97.7922C528.016 96.7692 528.234 95.7567 528.657 94.8139C529.08 93.8712 529.7 93.0174 530.48 92.3027L540.078 83.5196C541.615 82.1059 543.687 81.3208 545.839 81.336H553.746L560.496 0.604492L567.233 81.336H575.205C577.355 81.3352 579.42 82.1181 580.966 83.5196L590.551 92.3027C591.331 93.0174 591.951 93.8712 592.374 94.8139C592.798 95.7567 593.016 96.7692 593.016 97.7922C593.016 98.8151 592.798 99.8277 592.374 100.77C591.951 101.713 591.331 102.567 590.551 103.282L580.966 112.114C579.431 113.515 577.373 114.298 575.231 114.297Z" fill="#212121" fill-opacity="0.59"/>
<path d="M813.786 74.2334H869.019V334.018H813.786V291.032C792.921 323.469 763.105 339.687 724.336 339.687C694.671 339.687 671.37 330.71 654.435 312.757C637.499 294.803 629.027 269.93 629.019 238.137V74.2334H684.251V227.337C684.251 268.262 703.476 288.728 741.925 288.736C764.745 288.736 782.424 281.729 794.964 267.714C807.503 253.699 813.777 234.098 813.786 208.911V74.2334Z" fill="#212121" fill-opacity="0.59"/>
</svg>
