<svg width="235" height="303" viewBox="0 0 235 303" fill="none" xmlns="http://www.w3.org/2000/svg">
<rect x="177.674" y="182.411" width="84.3173" height="84.3173" rx="19" transform="rotate(48.6165 177.674 182.411)" stroke="black" stroke-width="2"/>
<path d="M183.458 250.458C181.479 250.458 179.875 252.063 179.875 254.042C179.875 256.021 181.479 257.625 183.458 257.625C185.437 257.625 187.041 256.021 187.041 254.042C187.041 252.063 185.437 250.458 183.458 250.458ZM183.458 250.458H169.651C168.825 250.458 168.412 250.458 168.071 250.311C167.771 250.182 167.511 249.972 167.321 249.706C167.106 249.404 167.022 249 166.848 248.192L162.444 227.641C162.271 226.833 162.184 226.429 161.969 226.127C161.779 225.861 161.52 225.652 161.22 225.522C160.879 225.375 160.467 225.375 159.641 225.375H158.375M163.75 230.75H186.814C188.107 230.75 188.754 230.75 189.188 231.019C189.568 231.255 189.846 231.625 189.967 232.056C190.106 232.547 189.928 233.169 189.569 234.411L187.089 243.011C186.874 243.754 186.767 244.126 186.55 244.401C186.358 244.645 186.105 244.834 185.818 244.951C185.493 245.083 185.106 245.083 184.333 245.083H166.85M167.333 257.625C165.354 257.625 163.75 256.021 163.75 254.042C163.75 252.063 165.354 250.458 167.333 250.458C169.312 250.458 170.916 252.063 170.916 254.042C170.916 256.021 169.312 257.625 167.333 257.625Z" stroke="black" stroke-width="3" stroke-linecap="round" stroke-linejoin="round"/>
<rect x="120.048" width="160" height="160" rx="20" transform="rotate(48.6165 120.048 0)" fill="#F75D21"/>
<path fill-rule="evenodd" clip-rule="evenodd" d="M113 81.3125C114.346 81.3125 115.438 82.4038 115.438 83.75V89.3949C120.09 89.4588 124.74 89.7055 129.377 90.1351L130.455 90.2349C137.815 90.9167 143.483 97.0288 143.608 104.42L143.648 106.738C143.801 115.757 143.074 124.768 141.477 133.645C140.751 137.685 137.235 140.625 133.13 140.625H132.412C128.718 140.625 125.372 138.448 123.874 135.072L120.427 127.3C117.571 120.859 108.43 120.859 105.573 127.3L102.126 135.072C100.628 138.448 97.2817 140.625 93.5881 140.625H92.8697C88.765 140.625 85.2494 137.685 84.5229 133.645C82.9265 124.768 82.1996 115.757 82.3524 106.738L82.3917 104.42C82.517 97.0289 88.1847 90.9167 95.5451 90.2349L96.6228 90.1351C101.26 89.7055 105.911 89.4588 110.563 89.3949V83.75C110.563 82.4038 111.654 81.3125 113 81.3125ZM129.25 100C129.25 98.2051 127.795 96.75 126 96.75C124.205 96.75 122.75 98.2051 122.75 100V100.813C122.75 102.607 124.205 104.063 126 104.063C127.795 104.063 129.25 102.607 129.25 100.813V100ZM100 97.5625C101.346 97.5625 102.438 98.6538 102.438 100V104.063H106.5C107.846 104.063 108.938 105.154 108.938 106.5C108.938 107.846 107.846 108.938 106.5 108.938H102.438V113C102.438 114.346 101.346 115.438 100 115.438C98.6539 115.438 97.5626 114.346 97.5626 113V108.938H93.5001C92.1539 108.938 91.0626 107.846 91.0626 106.5C91.0626 105.154 92.1539 104.062 93.5001 104.062L97.5626 104.063V100C97.5626 98.6538 98.6539 97.5625 100 97.5625ZM126 108.938C127.795 108.938 129.25 110.393 129.25 112.188V113C129.25 114.795 127.795 116.25 126 116.25C124.205 116.25 122.75 114.795 122.75 113V112.188C122.75 110.393 124.205 108.938 126 108.938ZM132.5 109.75C134.295 109.75 135.75 108.295 135.75 106.5C135.75 104.705 134.295 103.25 132.5 103.25H131.688C129.893 103.25 128.438 104.705 128.438 106.5C128.438 108.295 129.893 109.75 131.688 109.75H132.5ZM123.563 106.5C123.563 108.295 122.108 109.75 120.313 109.75H119.5C117.705 109.75 116.25 108.295 116.25 106.5C116.25 104.705 117.705 103.25 119.5 103.25H120.313C122.108 103.25 123.563 104.705 123.563 106.5Z" fill="#FDF7F9"/>
</svg>
