<svg width="628" height="700" viewBox="0 0 628 700" fill="none" xmlns="http://www.w3.org/2000/svg">
<rect x="393.789" width="196.349" height="201.993" rx="50" transform="rotate(26.962 393.789 0)" fill="#F75D21"/>
<rect x="482.658" y="318.37" width="189.73" height="217.022" rx="50" transform="rotate(26.962 482.658 318.37)" fill="#F4865C"/>
<mask id="path-3-inside-1_3197_22474" fill="white">
<path fill-rule="evenodd" clip-rule="evenodd" d="M623.198 116.698C598.585 104.178 568.483 113.981 555.962 138.594L503.868 241.003C491.348 265.616 461.245 275.419 436.632 262.899L340.919 214.21C316.306 201.69 286.204 211.493 273.683 236.105L207.67 365.878C195.149 390.49 204.952 420.593 229.565 433.113L330.517 484.466C355.13 496.986 385.232 487.184 397.752 462.571L456.099 347.871C468.619 323.259 498.721 313.456 523.334 325.976L612.488 371.328C637.101 383.848 667.203 374.045 679.724 349.432L739.486 231.95C752.006 207.338 742.203 177.235 717.59 164.715L623.198 116.698Z"/>
</mask>
<path d="M623.198 116.698L621.384 120.264L623.198 116.698ZM340.919 214.21L342.732 210.645L340.919 214.21ZM229.565 433.113L231.379 429.548L229.565 433.113ZM330.517 484.466L328.703 488.031L330.517 484.466ZM397.752 462.571L401.317 464.384L397.752 462.571ZM717.59 164.715L719.404 161.15L717.59 164.715ZM559.528 140.408C571.046 117.764 598.74 108.745 621.384 120.264L625.011 113.133C598.43 99.6114 565.919 110.199 552.397 136.78L559.528 140.408ZM507.433 242.817L559.528 140.408L552.397 136.78L500.303 239.19L507.433 242.817ZM339.105 217.775L434.819 266.464L438.446 259.333L342.732 210.645L339.105 217.775ZM277.249 237.919C288.767 215.275 316.461 206.257 339.105 217.775L342.732 210.645C316.151 197.123 283.64 207.71 270.118 234.292L277.249 237.919ZM211.235 367.691L277.249 237.919L270.118 234.292L204.104 364.064L211.235 367.691ZM231.379 429.548C208.735 418.029 199.716 390.335 211.235 367.691L204.104 364.064C190.583 390.646 201.17 423.156 227.751 436.678L231.379 429.548ZM332.33 480.901L231.379 429.548L227.751 436.678L328.703 488.031L332.33 480.901ZM394.187 460.757C382.668 483.401 354.974 492.42 332.33 480.901L328.703 488.031C355.285 501.553 387.795 490.966 401.317 464.384L394.187 460.757ZM452.533 346.058L394.187 460.757L401.317 464.384L459.664 349.685L452.533 346.058ZM614.302 367.763L525.148 322.411L521.52 329.541L610.675 374.893L614.302 367.763ZM676.158 347.619C664.64 370.263 636.946 379.281 614.302 367.763L610.675 374.893C637.256 388.415 669.767 377.828 683.289 351.246L676.158 347.619ZM735.92 230.137L676.158 347.619L683.289 351.246L743.051 233.764L735.92 230.137ZM715.777 168.28C738.42 179.799 747.439 207.493 735.92 230.137L743.051 233.764C756.573 207.182 745.986 174.672 719.404 161.15L715.777 168.28ZM621.384 120.264L715.777 168.28L719.404 161.15L625.011 113.133L621.384 120.264ZM459.664 349.685C471.182 327.041 498.877 318.022 521.52 329.541L525.148 322.411C498.566 308.889 466.055 319.476 452.533 346.058L459.664 349.685ZM500.303 239.19C488.784 261.833 461.09 270.852 438.446 259.333L434.819 266.464C461.401 279.986 493.911 269.399 507.433 242.817L500.303 239.19Z" fill="black" mask="url(#path-3-inside-1_3197_22474)"/>
<path d="M566.927 163.565C579.447 138.953 609.549 129.15 634.162 141.67L699.734 175.026C724.347 187.546 734.15 217.648 721.629 242.261L678.373 327.297C665.852 351.909 635.75 361.712 611.137 349.192L501 293.166L566.927 163.565Z" fill="#D9D9D9"/>
<path d="M335 372L351.497 411.597L357.353 394.353L374.597 388.497L335 372Z" stroke="black" stroke-width="3" stroke-linecap="round" stroke-linejoin="round"/>
<path d="M358.333 395.333L372.333 409.333" stroke="black" stroke-width="3" stroke-linecap="round" stroke-linejoin="round"/>
<circle cx="335" cy="365" r="334.75" stroke="#FA8F65" stroke-width="0.5"/>
<circle cx="335" cy="365" r="254.949" stroke="#FA8F65"/>
<circle cx="334.116" cy="365.884" r="175.781" stroke="#FA8F65" stroke-width="2"/>
</svg>
