<svg width="102" height="206" viewBox="0 0 102 206" fill="none" xmlns="http://www.w3.org/2000/svg">
<path d="M96.6371 203.318C96.6371 201.836 97.8376 200.635 99.3185 200.635C100.799 200.635 102 201.836 102 203.318C102 204.799 100.799 206 99.3185 206C97.8376 206 96.6371 204.799 96.6371 203.318Z" fill="url(#paint0_linear_1687_22495)"/>
<path d="M78.4032 203.318C78.4032 201.836 79.6038 200.635 81.0847 200.635C82.5656 200.635 83.7661 201.836 83.7661 203.318C83.7661 204.799 82.5656 206 81.0847 206C79.6038 206 78.4032 204.799 78.4032 203.318Z" fill="url(#paint1_linear_1687_22495)"/>
<path d="M60.1694 203.318C60.1694 201.836 61.3699 200.635 62.8508 200.635C64.3317 200.635 65.5323 201.836 65.5323 203.318C65.5323 204.799 64.3317 206 62.8508 206C61.3699 206 60.1694 204.799 60.1694 203.318Z" fill="url(#paint2_linear_1687_22495)"/>
<path d="M41.9355 203.318C41.9355 201.836 43.136 200.635 44.6169 200.635C46.0979 200.635 47.2984 201.836 47.2984 203.318C47.2984 204.799 46.0979 206 44.6169 206C43.136 206 41.9355 204.799 41.9355 203.318Z" fill="url(#paint3_linear_1687_22495)"/>
<path d="M23.7016 203.318C23.7016 201.836 24.9021 200.635 26.3831 200.635C27.864 200.635 29.0645 201.836 29.0645 203.318C29.0645 204.799 27.864 206 26.3831 206C24.9021 206 23.7016 204.799 23.7016 203.318Z" fill="url(#paint4_linear_1687_22495)"/>
<path d="M5.46775 203.318C5.46775 201.836 6.66827 200.635 8.1492 200.635C9.63012 200.635 10.8307 201.836 10.8307 203.318C10.8307 204.799 9.63012 206 8.1492 206C6.66827 206 5.46775 204.799 5.46775 203.318Z" fill="url(#paint5_linear_1687_22495)"/>
<path d="M-12.7661 203.318C-12.7661 201.836 -11.5656 200.635 -10.0847 200.635C-8.60375 200.635 -7.40322 201.836 -7.40322 203.318C-7.40322 204.799 -8.60375 206 -10.0847 206C-11.5656 206 -12.7661 204.799 -12.7661 203.318Z" fill="url(#paint6_linear_1687_22495)"/>
<path d="M-31 203.318C-31 201.836 -29.7995 200.635 -28.3185 200.635C-26.8376 200.635 -25.6371 201.836 -25.6371 203.318C-25.6371 204.799 -26.8376 206 -28.3185 206C-29.7995 206 -31 204.799 -31 203.318Z" fill="url(#paint7_linear_1687_22495)"/>
<path d="M96.6371 185.079C96.6371 183.597 97.8376 182.396 99.3185 182.396C100.799 182.396 102 183.597 102 185.079C102 186.56 100.799 187.761 99.3185 187.761C97.8376 187.761 96.6371 186.56 96.6371 185.079Z" fill="url(#paint8_linear_1687_22495)"/>
<path d="M78.4032 185.079C78.4032 183.597 79.6038 182.396 81.0847 182.396C82.5656 182.396 83.7661 183.597 83.7661 185.079C83.7661 186.56 82.5656 187.761 81.0847 187.761C79.6038 187.761 78.4032 186.56 78.4032 185.079Z" fill="url(#paint9_linear_1687_22495)"/>
<path d="M60.1694 185.079C60.1694 183.597 61.3699 182.396 62.8508 182.396C64.3317 182.396 65.5323 183.597 65.5323 185.079C65.5323 186.56 64.3317 187.761 62.8508 187.761C61.3699 187.761 60.1694 186.56 60.1694 185.079Z" fill="url(#paint10_linear_1687_22495)"/>
<path d="M41.9355 185.079C41.9355 183.597 43.136 182.396 44.6169 182.396C46.0979 182.396 47.2984 183.597 47.2984 185.079C47.2984 186.56 46.0979 187.761 44.6169 187.761C43.136 187.761 41.9355 186.56 41.9355 185.079Z" fill="url(#paint11_linear_1687_22495)"/>
<path d="M23.7016 185.079C23.7016 183.597 24.9021 182.396 26.3831 182.396C27.864 182.396 29.0645 183.597 29.0645 185.079C29.0645 186.56 27.864 187.761 26.3831 187.761C24.9021 187.761 23.7016 186.56 23.7016 185.079Z" fill="url(#paint12_linear_1687_22495)"/>
<path d="M5.46775 185.079C5.46775 183.597 6.66827 182.396 8.1492 182.396C9.63012 182.396 10.8307 183.597 10.8307 185.079C10.8307 186.56 9.63012 187.761 8.1492 187.761C6.66827 187.761 5.46775 186.56 5.46775 185.079Z" fill="url(#paint13_linear_1687_22495)"/>
<path d="M-12.7661 185.079C-12.7661 183.597 -11.5656 182.396 -10.0847 182.396C-8.60375 182.396 -7.40322 183.597 -7.40322 185.079C-7.40322 186.56 -8.60375 187.761 -10.0847 187.761C-11.5656 187.761 -12.7661 186.56 -12.7661 185.079Z" fill="url(#paint14_linear_1687_22495)"/>
<path d="M-31 185.079C-31 183.597 -29.7995 182.396 -28.3185 182.396C-26.8376 182.396 -25.6371 183.597 -25.6371 185.079C-25.6371 186.56 -26.8376 187.761 -28.3185 187.761C-29.7995 187.761 -31 186.56 -31 185.079Z" fill="url(#paint15_linear_1687_22495)"/>
<path d="M96.6371 166.839C96.6371 165.357 97.8376 164.156 99.3185 164.156C100.799 164.156 102 165.357 102 166.839C102 168.32 100.799 169.521 99.3185 169.521C97.8376 169.521 96.6371 168.32 96.6371 166.839Z" fill="url(#paint16_linear_1687_22495)"/>
<path d="M78.4032 166.839C78.4032 165.357 79.6038 164.156 81.0847 164.156C82.5656 164.156 83.7661 165.357 83.7661 166.839C83.7661 168.32 82.5656 169.521 81.0847 169.521C79.6038 169.521 78.4032 168.32 78.4032 166.839Z" fill="url(#paint17_linear_1687_22495)"/>
<path d="M60.1694 166.839C60.1694 165.357 61.3699 164.156 62.8508 164.156C64.3317 164.156 65.5323 165.357 65.5323 166.839C65.5323 168.32 64.3317 169.521 62.8508 169.521C61.3699 169.521 60.1694 168.32 60.1694 166.839Z" fill="url(#paint18_linear_1687_22495)"/>
<path d="M41.9355 166.839C41.9355 165.357 43.136 164.156 44.6169 164.156C46.0979 164.156 47.2984 165.357 47.2984 166.839C47.2984 168.32 46.0979 169.521 44.6169 169.521C43.136 169.521 41.9355 168.32 41.9355 166.839Z" fill="url(#paint19_linear_1687_22495)"/>
<path d="M23.7016 166.839C23.7016 165.357 24.9021 164.156 26.3831 164.156C27.864 164.156 29.0645 165.357 29.0645 166.839C29.0645 168.32 27.864 169.521 26.3831 169.521C24.9021 169.521 23.7016 168.32 23.7016 166.839Z" fill="url(#paint20_linear_1687_22495)"/>
<path d="M5.46775 166.839C5.46775 165.357 6.66827 164.156 8.1492 164.156C9.63012 164.156 10.8307 165.357 10.8307 166.839C10.8307 168.32 9.63012 169.521 8.1492 169.521C6.66827 169.521 5.46775 168.32 5.46775 166.839Z" fill="url(#paint21_linear_1687_22495)"/>
<path d="M-12.7661 166.839C-12.7661 165.357 -11.5656 164.156 -10.0847 164.156C-8.60375 164.156 -7.40322 165.357 -7.40322 166.839C-7.40322 168.32 -8.60375 169.521 -10.0847 169.521C-11.5656 169.521 -12.7661 168.32 -12.7661 166.839Z" fill="url(#paint22_linear_1687_22495)"/>
<path d="M-31 166.839C-31 165.357 -29.7995 164.156 -28.3185 164.156C-26.8376 164.156 -25.6371 165.357 -25.6371 166.839C-25.6371 168.32 -26.8376 169.521 -28.3185 169.521C-29.7995 169.521 -31 168.32 -31 166.839Z" fill="url(#paint23_linear_1687_22495)"/>
<path d="M96.6371 148.599C96.6371 147.118 97.8376 145.917 99.3185 145.917C100.799 145.917 102 147.118 102 148.599C102 150.081 100.799 151.282 99.3185 151.282C97.8376 151.282 96.6371 150.081 96.6371 148.599Z" fill="url(#paint24_linear_1687_22495)"/>
<path d="M78.4032 148.599C78.4032 147.118 79.6038 145.917 81.0847 145.917C82.5656 145.917 83.7661 147.118 83.7661 148.599C83.7661 150.081 82.5656 151.282 81.0847 151.282C79.6038 151.282 78.4032 150.081 78.4032 148.599Z" fill="url(#paint25_linear_1687_22495)"/>
<path d="M60.1694 148.599C60.1694 147.118 61.3699 145.917 62.8508 145.917C64.3317 145.917 65.5323 147.118 65.5323 148.599C65.5323 150.081 64.3317 151.282 62.8508 151.282C61.3699 151.282 60.1694 150.081 60.1694 148.599Z" fill="url(#paint26_linear_1687_22495)"/>
<path d="M41.9355 148.599C41.9355 147.118 43.136 145.917 44.6169 145.917C46.0979 145.917 47.2984 147.118 47.2984 148.599C47.2984 150.081 46.0979 151.282 44.6169 151.282C43.136 151.282 41.9355 150.081 41.9355 148.599Z" fill="url(#paint27_linear_1687_22495)"/>
<path d="M23.7016 148.599C23.7016 147.118 24.9021 145.917 26.3831 145.917C27.864 145.917 29.0645 147.118 29.0645 148.599C29.0645 150.081 27.864 151.282 26.3831 151.282C24.9021 151.282 23.7016 150.081 23.7016 148.599Z" fill="url(#paint28_linear_1687_22495)"/>
<path d="M5.46775 148.599C5.46775 147.118 6.66827 145.917 8.1492 145.917C9.63012 145.917 10.8307 147.118 10.8307 148.599C10.8307 150.081 9.63012 151.282 8.1492 151.282C6.66827 151.282 5.46775 150.081 5.46775 148.599Z" fill="url(#paint29_linear_1687_22495)"/>
<path d="M-12.7661 148.599C-12.7661 147.118 -11.5656 145.917 -10.0847 145.917C-8.60375 145.917 -7.40322 147.118 -7.40322 148.599C-7.40322 150.081 -8.60375 151.282 -10.0847 151.282C-11.5656 151.282 -12.7661 150.081 -12.7661 148.599Z" fill="url(#paint30_linear_1687_22495)"/>
<path d="M-31 148.599C-31 147.118 -29.7995 145.917 -28.3185 145.917C-26.8376 145.917 -25.6371 147.118 -25.6371 148.599C-25.6371 150.081 -26.8376 151.282 -28.3185 151.282C-29.7995 151.282 -31 150.081 -31 148.599Z" fill="url(#paint31_linear_1687_22495)"/>
<path d="M96.6371 130.36C96.6371 128.878 97.8376 127.677 99.3185 127.677C100.799 127.677 102 128.878 102 130.36C102 131.841 100.799 133.042 99.3185 133.042C97.8376 133.042 96.6371 131.841 96.6371 130.36Z" fill="url(#paint32_linear_1687_22495)"/>
<path d="M78.4032 130.36C78.4032 128.878 79.6038 127.677 81.0847 127.677C82.5656 127.677 83.7661 128.878 83.7661 130.36C83.7661 131.841 82.5656 133.042 81.0847 133.042C79.6038 133.042 78.4032 131.841 78.4032 130.36Z" fill="url(#paint33_linear_1687_22495)"/>
<path d="M60.1694 130.36C60.1694 128.878 61.3699 127.677 62.8508 127.677C64.3317 127.677 65.5323 128.878 65.5323 130.36C65.5323 131.841 64.3317 133.042 62.8508 133.042C61.3699 133.042 60.1694 131.841 60.1694 130.36Z" fill="url(#paint34_linear_1687_22495)"/>
<path d="M41.9355 130.36C41.9355 128.878 43.136 127.677 44.6169 127.677C46.0979 127.677 47.2984 128.878 47.2984 130.36C47.2984 131.841 46.0979 133.042 44.6169 133.042C43.136 133.042 41.9355 131.841 41.9355 130.36Z" fill="url(#paint35_linear_1687_22495)"/>
<path d="M23.7016 130.36C23.7016 128.878 24.9021 127.677 26.3831 127.677C27.864 127.677 29.0645 128.878 29.0645 130.36C29.0645 131.841 27.864 133.042 26.3831 133.042C24.9021 133.042 23.7016 131.841 23.7016 130.36Z" fill="url(#paint36_linear_1687_22495)"/>
<path d="M5.46775 130.36C5.46775 128.878 6.66827 127.677 8.1492 127.677C9.63012 127.677 10.8307 128.878 10.8307 130.36C10.8307 131.841 9.63012 133.042 8.1492 133.042C6.66827 133.042 5.46775 131.841 5.46775 130.36Z" fill="url(#paint37_linear_1687_22495)"/>
<path d="M-12.7661 130.36C-12.7661 128.878 -11.5656 127.677 -10.0847 127.677C-8.60375 127.677 -7.40322 128.878 -7.40322 130.36C-7.40322 131.841 -8.60375 133.042 -10.0847 133.042C-11.5656 133.042 -12.7661 131.841 -12.7661 130.36Z" fill="url(#paint38_linear_1687_22495)"/>
<path d="M-31 130.36C-31 128.878 -29.7995 127.677 -28.3185 127.677C-26.8376 127.677 -25.6371 128.878 -25.6371 130.36C-25.6371 131.841 -26.8376 133.042 -28.3185 133.042C-29.7995 133.042 -31 131.841 -31 130.36Z" fill="url(#paint39_linear_1687_22495)"/>
<path d="M96.6371 112.12C96.6371 110.638 97.8376 109.437 99.3185 109.437C100.799 109.437 102 110.638 102 112.12C102 113.601 100.799 114.802 99.3185 114.802C97.8376 114.802 96.6371 113.601 96.6371 112.12Z" fill="url(#paint40_linear_1687_22495)"/>
<path d="M78.4032 112.12C78.4032 110.638 79.6038 109.437 81.0847 109.437C82.5656 109.437 83.7661 110.638 83.7661 112.12C83.7661 113.601 82.5656 114.802 81.0847 114.802C79.6038 114.802 78.4032 113.601 78.4032 112.12Z" fill="url(#paint41_linear_1687_22495)"/>
<path d="M60.1694 112.12C60.1694 110.638 61.3699 109.437 62.8508 109.437C64.3317 109.437 65.5323 110.638 65.5323 112.12C65.5323 113.601 64.3317 114.802 62.8508 114.802C61.3699 114.802 60.1694 113.601 60.1694 112.12Z" fill="url(#paint42_linear_1687_22495)"/>
<path d="M41.9355 112.12C41.9355 110.638 43.136 109.437 44.6169 109.437C46.0979 109.437 47.2984 110.638 47.2984 112.12C47.2984 113.601 46.0979 114.802 44.6169 114.802C43.136 114.802 41.9355 113.601 41.9355 112.12Z" fill="url(#paint43_linear_1687_22495)"/>
<path d="M23.7016 112.12C23.7016 110.638 24.9021 109.437 26.3831 109.437C27.864 109.437 29.0645 110.638 29.0645 112.12C29.0645 113.601 27.864 114.802 26.3831 114.802C24.9021 114.802 23.7016 113.601 23.7016 112.12Z" fill="url(#paint44_linear_1687_22495)"/>
<path d="M5.46775 112.12C5.46775 110.638 6.66827 109.437 8.1492 109.437C9.63012 109.437 10.8307 110.638 10.8307 112.12C10.8307 113.601 9.63012 114.802 8.1492 114.802C6.66827 114.802 5.46775 113.601 5.46775 112.12Z" fill="url(#paint45_linear_1687_22495)"/>
<path d="M-12.7661 112.12C-12.7661 110.638 -11.5656 109.437 -10.0847 109.437C-8.60375 109.437 -7.40322 110.638 -7.40322 112.12C-7.40322 113.601 -8.60375 114.802 -10.0847 114.802C-11.5656 114.802 -12.7661 113.601 -12.7661 112.12Z" fill="url(#paint46_linear_1687_22495)"/>
<path d="M-31 112.12C-31 110.638 -29.7995 109.437 -28.3185 109.437C-26.8376 109.437 -25.6371 110.638 -25.6371 112.12C-25.6371 113.601 -26.8376 114.802 -28.3185 114.802C-29.7995 114.802 -31 113.601 -31 112.12Z" fill="url(#paint47_linear_1687_22495)"/>
<path d="M96.6371 93.8803C96.6371 92.3989 97.8376 91.198 99.3185 91.198C100.799 91.198 102 92.3989 102 93.8803C102 95.3617 100.799 96.5626 99.3185 96.5626C97.8376 96.5626 96.6371 95.3617 96.6371 93.8803Z" fill="url(#paint48_linear_1687_22495)"/>
<path d="M78.4032 93.8804C78.4032 92.3991 79.6038 91.1982 81.0847 91.1982C82.5656 91.1982 83.7661 92.3991 83.7661 93.8804C83.7661 95.3618 82.5656 96.5627 81.0847 96.5627C79.6038 96.5627 78.4032 95.3618 78.4032 93.8804Z" fill="url(#paint49_linear_1687_22495)"/>
<path d="M60.1694 93.8804C60.1694 92.3991 61.3699 91.1982 62.8508 91.1982C64.3317 91.1982 65.5323 92.3991 65.5323 93.8804C65.5323 95.3618 64.3317 96.5627 62.8508 96.5627C61.3699 96.5627 60.1694 95.3618 60.1694 93.8804Z" fill="url(#paint50_linear_1687_22495)"/>
<path d="M41.9355 93.8804C41.9355 92.3991 43.136 91.1982 44.6169 91.1982C46.0979 91.1982 47.2984 92.3991 47.2984 93.8804C47.2984 95.3618 46.0979 96.5627 44.6169 96.5627C43.136 96.5627 41.9355 95.3618 41.9355 93.8804Z" fill="url(#paint51_linear_1687_22495)"/>
<path d="M23.7016 93.8804C23.7016 92.3991 24.9021 91.1982 26.3831 91.1982C27.864 91.1982 29.0645 92.3991 29.0645 93.8804C29.0645 95.3618 27.864 96.5627 26.3831 96.5627C24.9021 96.5627 23.7016 95.3618 23.7016 93.8804Z" fill="url(#paint52_linear_1687_22495)"/>
<path d="M5.46775 93.8804C5.46775 92.3991 6.66827 91.1982 8.1492 91.1982C9.63012 91.1982 10.8307 92.3991 10.8307 93.8804C10.8307 95.3618 9.63012 96.5627 8.1492 96.5627C6.66827 96.5627 5.46775 95.3618 5.46775 93.8804Z" fill="url(#paint53_linear_1687_22495)"/>
<path d="M-12.7661 93.8804C-12.7661 92.3991 -11.5656 91.1982 -10.0847 91.1982C-8.60375 91.1982 -7.40322 92.3991 -7.40322 93.8804C-7.40322 95.3618 -8.60375 96.5627 -10.0847 96.5627C-11.5656 96.5627 -12.7661 95.3618 -12.7661 93.8804Z" fill="url(#paint54_linear_1687_22495)"/>
<path d="M-31 93.8804C-31 92.3991 -29.7995 91.1982 -28.3185 91.1982C-26.8376 91.1982 -25.6371 92.3991 -25.6371 93.8804C-25.6371 95.3618 -26.8376 96.5627 -28.3185 96.5627C-29.7995 96.5627 -31 95.3618 -31 93.8804Z" fill="url(#paint55_linear_1687_22495)"/>
<path d="M96.6371 75.6405C96.6371 74.1591 97.8376 72.9582 99.3185 72.9582C100.799 72.9582 102 74.1591 102 75.6405C102 77.1219 100.799 78.3228 99.3185 78.3228C97.8376 78.3228 96.6371 77.1219 96.6371 75.6405Z" fill="url(#paint56_linear_1687_22495)"/>
<path d="M78.4032 75.6405C78.4032 74.1591 79.6038 72.9582 81.0847 72.9582C82.5656 72.9582 83.7661 74.1591 83.7661 75.6405C83.7661 77.1219 82.5656 78.3228 81.0847 78.3228C79.6038 78.3228 78.4032 77.1219 78.4032 75.6405Z" fill="url(#paint57_linear_1687_22495)"/>
<path d="M60.1694 75.6405C60.1694 74.1591 61.3699 72.9582 62.8508 72.9582C64.3317 72.9582 65.5323 74.1591 65.5323 75.6405C65.5323 77.1219 64.3317 78.3228 62.8508 78.3228C61.3699 78.3228 60.1694 77.1219 60.1694 75.6405Z" fill="url(#paint58_linear_1687_22495)"/>
<path d="M41.9355 75.6405C41.9355 74.1591 43.136 72.9582 44.6169 72.9582C46.0979 72.9582 47.2984 74.1591 47.2984 75.6405C47.2984 77.1219 46.0979 78.3228 44.6169 78.3228C43.136 78.3228 41.9355 77.1219 41.9355 75.6405Z" fill="url(#paint59_linear_1687_22495)"/>
<path d="M23.7016 75.6405C23.7016 74.1591 24.9021 72.9582 26.3831 72.9582C27.864 72.9582 29.0645 74.1591 29.0645 75.6405C29.0645 77.1219 27.864 78.3228 26.3831 78.3228C24.9021 78.3228 23.7016 77.1219 23.7016 75.6405Z" fill="url(#paint60_linear_1687_22495)"/>
<path d="M5.46775 75.6405C5.46775 74.1591 6.66827 72.9582 8.1492 72.9582C9.63012 72.9582 10.8307 74.1591 10.8307 75.6405C10.8307 77.1219 9.63012 78.3228 8.1492 78.3228C6.66827 78.3228 5.46775 77.1219 5.46775 75.6405Z" fill="url(#paint61_linear_1687_22495)"/>
<path d="M-12.7661 75.6405C-12.7661 74.1591 -11.5656 72.9582 -10.0847 72.9582C-8.60375 72.9582 -7.40322 74.1591 -7.40322 75.6405C-7.40322 77.1219 -8.60375 78.3228 -10.0847 78.3228C-11.5656 78.3228 -12.7661 77.1219 -12.7661 75.6405Z" fill="url(#paint62_linear_1687_22495)"/>
<path d="M-31 75.6405C-31 74.1591 -29.7995 72.9582 -28.3185 72.9582C-26.8376 72.9582 -25.6371 74.1591 -25.6371 75.6405C-25.6371 77.1219 -26.8376 78.3228 -28.3185 78.3228C-29.7995 78.3228 -31 77.1219 -31 75.6405Z" fill="url(#paint63_linear_1687_22495)"/>
<path d="M96.6371 57.4014C96.6371 55.92 97.8376 54.7191 99.3185 54.7191C100.799 54.7191 102 55.92 102 57.4014C102 58.8828 100.799 60.0837 99.3185 60.0837C97.8376 60.0837 96.6371 58.8828 96.6371 57.4014Z" fill="url(#paint64_linear_1687_22495)"/>
<path d="M78.4032 57.4014C78.4032 55.92 79.6038 54.7191 81.0847 54.7191C82.5656 54.7191 83.7661 55.92 83.7661 57.4014C83.7661 58.8828 82.5656 60.0837 81.0847 60.0837C79.6038 60.0837 78.4032 58.8828 78.4032 57.4014Z" fill="url(#paint65_linear_1687_22495)"/>
<path d="M60.1694 57.4014C60.1694 55.92 61.3699 54.7191 62.8508 54.7191C64.3317 54.7191 65.5323 55.92 65.5323 57.4014C65.5323 58.8828 64.3317 60.0837 62.8508 60.0837C61.3699 60.0837 60.1694 58.8828 60.1694 57.4014Z" fill="url(#paint66_linear_1687_22495)"/>
<path d="M41.9355 57.4014C41.9355 55.92 43.136 54.7191 44.6169 54.7191C46.0979 54.7191 47.2984 55.92 47.2984 57.4014C47.2984 58.8828 46.0979 60.0837 44.6169 60.0837C43.136 60.0837 41.9355 58.8828 41.9355 57.4014Z" fill="url(#paint67_linear_1687_22495)"/>
<path d="M23.7016 57.4014C23.7016 55.92 24.9021 54.7191 26.3831 54.7191C27.864 54.7191 29.0645 55.92 29.0645 57.4014C29.0645 58.8828 27.864 60.0837 26.3831 60.0837C24.9021 60.0837 23.7016 58.8828 23.7016 57.4014Z" fill="url(#paint68_linear_1687_22495)"/>
<path d="M5.46775 57.4014C5.46775 55.92 6.66827 54.7191 8.1492 54.7191C9.63012 54.7191 10.8307 55.92 10.8307 57.4014C10.8307 58.8828 9.63012 60.0837 8.1492 60.0837C6.66827 60.0837 5.46775 58.8828 5.46775 57.4014Z" fill="url(#paint69_linear_1687_22495)"/>
<path d="M-12.7661 57.4014C-12.7661 55.92 -11.5656 54.7191 -10.0847 54.7191C-8.60375 54.7191 -7.40322 55.92 -7.40322 57.4014C-7.40322 58.8828 -8.60375 60.0837 -10.0847 60.0837C-11.5656 60.0837 -12.7661 58.8828 -12.7661 57.4014Z" fill="url(#paint70_linear_1687_22495)"/>
<path d="M-31 57.4014C-31 55.92 -29.7995 54.7191 -28.3185 54.7191C-26.8376 54.7191 -25.6371 55.92 -25.6371 57.4014C-25.6371 58.8828 -26.8376 60.0837 -28.3185 60.0837C-29.7995 60.0837 -31 58.8828 -31 57.4014Z" fill="url(#paint71_linear_1687_22495)"/>
<path d="M96.6371 39.1615C96.6371 37.6801 97.8376 36.4792 99.3185 36.4792C100.799 36.4792 102 37.6801 102 39.1615C102 40.6429 100.799 41.8438 99.3185 41.8438C97.8376 41.8438 96.6371 40.6429 96.6371 39.1615Z" fill="url(#paint72_linear_1687_22495)"/>
<path d="M78.4032 39.1615C78.4032 37.6801 79.6038 36.4792 81.0847 36.4792C82.5656 36.4792 83.7661 37.6801 83.7661 39.1615C83.7661 40.6428 82.5656 41.8438 81.0847 41.8438C79.6038 41.8438 78.4032 40.6428 78.4032 39.1615Z" fill="url(#paint73_linear_1687_22495)"/>
<path d="M60.1694 39.1615C60.1694 37.6801 61.3699 36.4792 62.8508 36.4792C64.3317 36.4792 65.5323 37.6801 65.5323 39.1615C65.5323 40.6428 64.3317 41.8438 62.8508 41.8438C61.3699 41.8438 60.1694 40.6428 60.1694 39.1615Z" fill="url(#paint74_linear_1687_22495)"/>
<path d="M41.9355 39.1615C41.9355 37.6801 43.136 36.4792 44.6169 36.4792C46.0979 36.4792 47.2984 37.6801 47.2984 39.1615C47.2984 40.6428 46.0979 41.8438 44.6169 41.8438C43.136 41.8438 41.9355 40.6428 41.9355 39.1615Z" fill="url(#paint75_linear_1687_22495)"/>
<path d="M23.7016 39.1615C23.7016 37.6801 24.9021 36.4792 26.3831 36.4792C27.864 36.4792 29.0645 37.6801 29.0645 39.1615C29.0645 40.6428 27.864 41.8438 26.3831 41.8438C24.9021 41.8438 23.7016 40.6428 23.7016 39.1615Z" fill="url(#paint76_linear_1687_22495)"/>
<path d="M5.46775 39.1615C5.46775 37.6801 6.66827 36.4792 8.1492 36.4792C9.63012 36.4792 10.8307 37.6801 10.8307 39.1615C10.8307 40.6428 9.63012 41.8438 8.1492 41.8438C6.66827 41.8438 5.46775 40.6428 5.46775 39.1615Z" fill="url(#paint77_linear_1687_22495)"/>
<path d="M-12.7661 39.1615C-12.7661 37.6801 -11.5656 36.4792 -10.0847 36.4792C-8.60375 36.4792 -7.40322 37.6801 -7.40322 39.1615C-7.40322 40.6428 -8.60375 41.8438 -10.0847 41.8438C-11.5656 41.8438 -12.7661 40.6428 -12.7661 39.1615Z" fill="url(#paint78_linear_1687_22495)"/>
<path d="M-31 39.1615C-31 37.6801 -29.7995 36.4792 -28.3185 36.4792C-26.8376 36.4792 -25.6371 37.6801 -25.6371 39.1615C-25.6371 40.6428 -26.8376 41.8438 -28.3185 41.8438C-29.7995 41.8438 -31 40.6428 -31 39.1615Z" fill="url(#paint79_linear_1687_22495)"/>
<path d="M96.6371 20.9223C96.6371 19.4409 97.8376 18.24 99.3185 18.24C100.799 18.24 102 19.4409 102 20.9223C102 22.4037 100.799 23.6046 99.3185 23.6046C97.8376 23.6046 96.6371 22.4037 96.6371 20.9223Z" fill="url(#paint80_linear_1687_22495)"/>
<path d="M78.4032 20.9223C78.4032 19.4409 79.6038 18.24 81.0847 18.24C82.5656 18.24 83.7661 19.4409 83.7661 20.9223C83.7661 22.4037 82.5656 23.6046 81.0847 23.6046C79.6038 23.6046 78.4032 22.4037 78.4032 20.9223Z" fill="url(#paint81_linear_1687_22495)"/>
<path d="M60.1694 20.9223C60.1694 19.4409 61.3699 18.24 62.8508 18.24C64.3317 18.24 65.5323 19.4409 65.5323 20.9223C65.5323 22.4037 64.3317 23.6046 62.8508 23.6046C61.3699 23.6046 60.1694 22.4037 60.1694 20.9223Z" fill="url(#paint82_linear_1687_22495)"/>
<path d="M41.9355 20.9223C41.9355 19.4409 43.136 18.24 44.6169 18.24C46.0979 18.24 47.2984 19.4409 47.2984 20.9223C47.2984 22.4037 46.0979 23.6046 44.6169 23.6046C43.136 23.6046 41.9355 22.4037 41.9355 20.9223Z" fill="url(#paint83_linear_1687_22495)"/>
<path d="M23.7016 20.9223C23.7016 19.4409 24.9021 18.24 26.3831 18.24C27.864 18.24 29.0645 19.4409 29.0645 20.9223C29.0645 22.4037 27.864 23.6046 26.3831 23.6046C24.9021 23.6046 23.7016 22.4037 23.7016 20.9223Z" fill="url(#paint84_linear_1687_22495)"/>
<path d="M5.46775 20.9223C5.46775 19.4409 6.66827 18.24 8.1492 18.24C9.63012 18.24 10.8307 19.4409 10.8307 20.9223C10.8307 22.4037 9.63012 23.6046 8.1492 23.6046C6.66827 23.6046 5.46775 22.4037 5.46775 20.9223Z" fill="url(#paint85_linear_1687_22495)"/>
<path d="M-12.7661 20.9223C-12.7661 19.4409 -11.5656 18.24 -10.0847 18.24C-8.60375 18.24 -7.40322 19.4409 -7.40322 20.9223C-7.40322 22.4037 -8.60375 23.6046 -10.0847 23.6046C-11.5656 23.6046 -12.7661 22.4037 -12.7661 20.9223Z" fill="url(#paint86_linear_1687_22495)"/>
<path d="M-31 20.9223C-31 19.4409 -29.7995 18.24 -28.3185 18.24C-26.8376 18.24 -25.6371 19.4409 -25.6371 20.9223C-25.6371 22.4037 -26.8376 23.6046 -28.3185 23.6046C-29.7995 23.6046 -31 22.4037 -31 20.9223Z" fill="url(#paint87_linear_1687_22495)"/>
<path d="M96.6371 2.6823C96.6371 1.20091 97.8376 0 99.3185 0C100.799 0 102 1.20091 102 2.6823C102 4.1637 100.799 5.36461 99.3185 5.36461C97.8376 5.36461 96.6371 4.1637 96.6371 2.6823Z" fill="url(#paint88_linear_1687_22495)"/>
<path d="M78.4032 2.68237C78.4032 1.20099 79.6038 7.62939e-05 81.0847 7.62939e-05C82.5656 7.62939e-05 83.7661 1.20099 83.7661 2.68237C83.7661 4.16376 82.5656 5.36465 81.0847 5.36465C79.6038 5.36465 78.4032 4.16376 78.4032 2.68237Z" fill="url(#paint89_linear_1687_22495)"/>
<path d="M60.1694 2.68237C60.1694 1.20099 61.3699 7.62939e-05 62.8508 7.62939e-05C64.3317 7.62939e-05 65.5323 1.20099 65.5323 2.68237C65.5323 4.16376 64.3317 5.36465 62.8508 5.36465C61.3699 5.36465 60.1694 4.16376 60.1694 2.68237Z" fill="url(#paint90_linear_1687_22495)"/>
<path d="M41.9355 2.68237C41.9355 1.20099 43.136 7.62939e-05 44.6169 7.62939e-05C46.0979 7.62939e-05 47.2984 1.20099 47.2984 2.68237C47.2984 4.16376 46.0979 5.36465 44.6169 5.36465C43.136 5.36465 41.9355 4.16376 41.9355 2.68237Z" fill="url(#paint91_linear_1687_22495)"/>
<path d="M23.7016 2.68237C23.7016 1.20099 24.9021 7.62939e-05 26.3831 7.62939e-05C27.864 7.62939e-05 29.0645 1.20099 29.0645 2.68237C29.0645 4.16376 27.864 5.36465 26.3831 5.36465C24.9021 5.36465 23.7016 4.16376 23.7016 2.68237Z" fill="url(#paint92_linear_1687_22495)"/>
<path d="M5.46775 2.68237C5.46775 1.20099 6.66827 7.62939e-05 8.1492 7.62939e-05C9.63012 7.62939e-05 10.8307 1.20099 10.8307 2.68237C10.8307 4.16376 9.63012 5.36465 8.1492 5.36465C6.66827 5.36465 5.46775 4.16376 5.46775 2.68237Z" fill="url(#paint93_linear_1687_22495)"/>
<path d="M-12.7661 2.68237C-12.7661 1.20099 -11.5656 7.62939e-05 -10.0847 7.62939e-05C-8.60375 7.62939e-05 -7.40322 1.20099 -7.40322 2.68237C-7.40322 4.16376 -8.60375 5.36465 -10.0847 5.36465C-11.5656 5.36465 -12.7661 4.16376 -12.7661 2.68237Z" fill="url(#paint94_linear_1687_22495)"/>
<path d="M-31 2.68237C-31 1.20099 -29.7995 7.62939e-05 -28.3185 7.62939e-05C-26.8376 7.62939e-05 -25.6371 1.20099 -25.6371 2.68237C-25.6371 4.16376 -26.8376 5.36465 -28.3185 5.36465C-29.7995 5.36465 -31 4.16376 -31 2.68237Z" fill="url(#paint95_linear_1687_22495)"/>
<defs>
<linearGradient id="paint0_linear_1687_22495" x1="5.98816" y1="111.139" x2="114.592" y2="110.352" gradientUnits="userSpaceOnUse">
<stop stop-color="white"/>
<stop offset="1" stop-color="white" stop-opacity="0.01"/>
</linearGradient>
<linearGradient id="paint1_linear_1687_22495" x1="5.98816" y1="111.139" x2="114.592" y2="110.352" gradientUnits="userSpaceOnUse">
<stop stop-color="white"/>
<stop offset="1" stop-color="white" stop-opacity="0.01"/>
</linearGradient>
<linearGradient id="paint2_linear_1687_22495" x1="5.98816" y1="111.139" x2="114.592" y2="110.352" gradientUnits="userSpaceOnUse">
<stop stop-color="white"/>
<stop offset="1" stop-color="white" stop-opacity="0.01"/>
</linearGradient>
<linearGradient id="paint3_linear_1687_22495" x1="5.98816" y1="111.139" x2="114.592" y2="110.352" gradientUnits="userSpaceOnUse">
<stop stop-color="white"/>
<stop offset="1" stop-color="white" stop-opacity="0.01"/>
</linearGradient>
<linearGradient id="paint4_linear_1687_22495" x1="5.98816" y1="111.139" x2="114.592" y2="110.352" gradientUnits="userSpaceOnUse">
<stop stop-color="white"/>
<stop offset="1" stop-color="white" stop-opacity="0.01"/>
</linearGradient>
<linearGradient id="paint5_linear_1687_22495" x1="5.98816" y1="111.139" x2="114.592" y2="110.352" gradientUnits="userSpaceOnUse">
<stop stop-color="white"/>
<stop offset="1" stop-color="white" stop-opacity="0.01"/>
</linearGradient>
<linearGradient id="paint6_linear_1687_22495" x1="5.98816" y1="111.139" x2="114.592" y2="110.352" gradientUnits="userSpaceOnUse">
<stop stop-color="white"/>
<stop offset="1" stop-color="white" stop-opacity="0.01"/>
</linearGradient>
<linearGradient id="paint7_linear_1687_22495" x1="5.98816" y1="111.139" x2="114.592" y2="110.352" gradientUnits="userSpaceOnUse">
<stop stop-color="white"/>
<stop offset="1" stop-color="white" stop-opacity="0.01"/>
</linearGradient>
<linearGradient id="paint8_linear_1687_22495" x1="5.98816" y1="111.139" x2="114.592" y2="110.352" gradientUnits="userSpaceOnUse">
<stop stop-color="white"/>
<stop offset="1" stop-color="white" stop-opacity="0.01"/>
</linearGradient>
<linearGradient id="paint9_linear_1687_22495" x1="5.98816" y1="111.139" x2="114.592" y2="110.352" gradientUnits="userSpaceOnUse">
<stop stop-color="white"/>
<stop offset="1" stop-color="white" stop-opacity="0.01"/>
</linearGradient>
<linearGradient id="paint10_linear_1687_22495" x1="5.98816" y1="111.139" x2="114.592" y2="110.352" gradientUnits="userSpaceOnUse">
<stop stop-color="white"/>
<stop offset="1" stop-color="white" stop-opacity="0.01"/>
</linearGradient>
<linearGradient id="paint11_linear_1687_22495" x1="5.98816" y1="111.139" x2="114.592" y2="110.352" gradientUnits="userSpaceOnUse">
<stop stop-color="white"/>
<stop offset="1" stop-color="white" stop-opacity="0.01"/>
</linearGradient>
<linearGradient id="paint12_linear_1687_22495" x1="5.98816" y1="111.139" x2="114.592" y2="110.352" gradientUnits="userSpaceOnUse">
<stop stop-color="white"/>
<stop offset="1" stop-color="white" stop-opacity="0.01"/>
</linearGradient>
<linearGradient id="paint13_linear_1687_22495" x1="5.98816" y1="111.139" x2="114.592" y2="110.352" gradientUnits="userSpaceOnUse">
<stop stop-color="white"/>
<stop offset="1" stop-color="white" stop-opacity="0.01"/>
</linearGradient>
<linearGradient id="paint14_linear_1687_22495" x1="5.98816" y1="111.139" x2="114.592" y2="110.352" gradientUnits="userSpaceOnUse">
<stop stop-color="white"/>
<stop offset="1" stop-color="white" stop-opacity="0.01"/>
</linearGradient>
<linearGradient id="paint15_linear_1687_22495" x1="5.98816" y1="111.139" x2="114.592" y2="110.352" gradientUnits="userSpaceOnUse">
<stop stop-color="white"/>
<stop offset="1" stop-color="white" stop-opacity="0.01"/>
</linearGradient>
<linearGradient id="paint16_linear_1687_22495" x1="5.98816" y1="111.139" x2="114.592" y2="110.352" gradientUnits="userSpaceOnUse">
<stop stop-color="white"/>
<stop offset="1" stop-color="white" stop-opacity="0.01"/>
</linearGradient>
<linearGradient id="paint17_linear_1687_22495" x1="5.98816" y1="111.139" x2="114.592" y2="110.352" gradientUnits="userSpaceOnUse">
<stop stop-color="white"/>
<stop offset="1" stop-color="white" stop-opacity="0.01"/>
</linearGradient>
<linearGradient id="paint18_linear_1687_22495" x1="5.98816" y1="111.139" x2="114.592" y2="110.352" gradientUnits="userSpaceOnUse">
<stop stop-color="white"/>
<stop offset="1" stop-color="white" stop-opacity="0.01"/>
</linearGradient>
<linearGradient id="paint19_linear_1687_22495" x1="5.98816" y1="111.139" x2="114.592" y2="110.352" gradientUnits="userSpaceOnUse">
<stop stop-color="white"/>
<stop offset="1" stop-color="white" stop-opacity="0.01"/>
</linearGradient>
<linearGradient id="paint20_linear_1687_22495" x1="5.98816" y1="111.139" x2="114.592" y2="110.352" gradientUnits="userSpaceOnUse">
<stop stop-color="white"/>
<stop offset="1" stop-color="white" stop-opacity="0.01"/>
</linearGradient>
<linearGradient id="paint21_linear_1687_22495" x1="5.98816" y1="111.139" x2="114.592" y2="110.352" gradientUnits="userSpaceOnUse">
<stop stop-color="white"/>
<stop offset="1" stop-color="white" stop-opacity="0.01"/>
</linearGradient>
<linearGradient id="paint22_linear_1687_22495" x1="5.98816" y1="111.139" x2="114.592" y2="110.352" gradientUnits="userSpaceOnUse">
<stop stop-color="white"/>
<stop offset="1" stop-color="white" stop-opacity="0.01"/>
</linearGradient>
<linearGradient id="paint23_linear_1687_22495" x1="5.98816" y1="111.139" x2="114.592" y2="110.352" gradientUnits="userSpaceOnUse">
<stop stop-color="white"/>
<stop offset="1" stop-color="white" stop-opacity="0.01"/>
</linearGradient>
<linearGradient id="paint24_linear_1687_22495" x1="5.98816" y1="111.139" x2="114.592" y2="110.352" gradientUnits="userSpaceOnUse">
<stop stop-color="white"/>
<stop offset="1" stop-color="white" stop-opacity="0.01"/>
</linearGradient>
<linearGradient id="paint25_linear_1687_22495" x1="5.98816" y1="111.139" x2="114.592" y2="110.352" gradientUnits="userSpaceOnUse">
<stop stop-color="white"/>
<stop offset="1" stop-color="white" stop-opacity="0.01"/>
</linearGradient>
<linearGradient id="paint26_linear_1687_22495" x1="5.98816" y1="111.139" x2="114.592" y2="110.352" gradientUnits="userSpaceOnUse">
<stop stop-color="white"/>
<stop offset="1" stop-color="white" stop-opacity="0.01"/>
</linearGradient>
<linearGradient id="paint27_linear_1687_22495" x1="5.98816" y1="111.139" x2="114.592" y2="110.352" gradientUnits="userSpaceOnUse">
<stop stop-color="white"/>
<stop offset="1" stop-color="white" stop-opacity="0.01"/>
</linearGradient>
<linearGradient id="paint28_linear_1687_22495" x1="5.98816" y1="111.139" x2="114.592" y2="110.352" gradientUnits="userSpaceOnUse">
<stop stop-color="white"/>
<stop offset="1" stop-color="white" stop-opacity="0.01"/>
</linearGradient>
<linearGradient id="paint29_linear_1687_22495" x1="5.98816" y1="111.139" x2="114.592" y2="110.352" gradientUnits="userSpaceOnUse">
<stop stop-color="white"/>
<stop offset="1" stop-color="white" stop-opacity="0.01"/>
</linearGradient>
<linearGradient id="paint30_linear_1687_22495" x1="5.98816" y1="111.139" x2="114.592" y2="110.352" gradientUnits="userSpaceOnUse">
<stop stop-color="white"/>
<stop offset="1" stop-color="white" stop-opacity="0.01"/>
</linearGradient>
<linearGradient id="paint31_linear_1687_22495" x1="5.98816" y1="111.139" x2="114.592" y2="110.352" gradientUnits="userSpaceOnUse">
<stop stop-color="white"/>
<stop offset="1" stop-color="white" stop-opacity="0.01"/>
</linearGradient>
<linearGradient id="paint32_linear_1687_22495" x1="5.98816" y1="111.139" x2="114.592" y2="110.352" gradientUnits="userSpaceOnUse">
<stop stop-color="white"/>
<stop offset="1" stop-color="white" stop-opacity="0.01"/>
</linearGradient>
<linearGradient id="paint33_linear_1687_22495" x1="5.98816" y1="111.139" x2="114.592" y2="110.352" gradientUnits="userSpaceOnUse">
<stop stop-color="white"/>
<stop offset="1" stop-color="white" stop-opacity="0.01"/>
</linearGradient>
<linearGradient id="paint34_linear_1687_22495" x1="5.98816" y1="111.139" x2="114.592" y2="110.352" gradientUnits="userSpaceOnUse">
<stop stop-color="white"/>
<stop offset="1" stop-color="white" stop-opacity="0.01"/>
</linearGradient>
<linearGradient id="paint35_linear_1687_22495" x1="5.98816" y1="111.139" x2="114.592" y2="110.352" gradientUnits="userSpaceOnUse">
<stop stop-color="white"/>
<stop offset="1" stop-color="white" stop-opacity="0.01"/>
</linearGradient>
<linearGradient id="paint36_linear_1687_22495" x1="5.98816" y1="111.139" x2="114.592" y2="110.352" gradientUnits="userSpaceOnUse">
<stop stop-color="white"/>
<stop offset="1" stop-color="white" stop-opacity="0.01"/>
</linearGradient>
<linearGradient id="paint37_linear_1687_22495" x1="5.98816" y1="111.139" x2="114.592" y2="110.352" gradientUnits="userSpaceOnUse">
<stop stop-color="white"/>
<stop offset="1" stop-color="white" stop-opacity="0.01"/>
</linearGradient>
<linearGradient id="paint38_linear_1687_22495" x1="5.98816" y1="111.139" x2="114.592" y2="110.352" gradientUnits="userSpaceOnUse">
<stop stop-color="white"/>
<stop offset="1" stop-color="white" stop-opacity="0.01"/>
</linearGradient>
<linearGradient id="paint39_linear_1687_22495" x1="5.98816" y1="111.139" x2="114.592" y2="110.352" gradientUnits="userSpaceOnUse">
<stop stop-color="white"/>
<stop offset="1" stop-color="white" stop-opacity="0.01"/>
</linearGradient>
<linearGradient id="paint40_linear_1687_22495" x1="5.98816" y1="111.139" x2="114.592" y2="110.352" gradientUnits="userSpaceOnUse">
<stop stop-color="white"/>
<stop offset="1" stop-color="white" stop-opacity="0.01"/>
</linearGradient>
<linearGradient id="paint41_linear_1687_22495" x1="5.98816" y1="111.139" x2="114.592" y2="110.352" gradientUnits="userSpaceOnUse">
<stop stop-color="white"/>
<stop offset="1" stop-color="white" stop-opacity="0.01"/>
</linearGradient>
<linearGradient id="paint42_linear_1687_22495" x1="5.98816" y1="111.139" x2="114.592" y2="110.352" gradientUnits="userSpaceOnUse">
<stop stop-color="white"/>
<stop offset="1" stop-color="white" stop-opacity="0.01"/>
</linearGradient>
<linearGradient id="paint43_linear_1687_22495" x1="5.98816" y1="111.139" x2="114.592" y2="110.352" gradientUnits="userSpaceOnUse">
<stop stop-color="white"/>
<stop offset="1" stop-color="white" stop-opacity="0.01"/>
</linearGradient>
<linearGradient id="paint44_linear_1687_22495" x1="5.98816" y1="111.139" x2="114.592" y2="110.352" gradientUnits="userSpaceOnUse">
<stop stop-color="white"/>
<stop offset="1" stop-color="white" stop-opacity="0.01"/>
</linearGradient>
<linearGradient id="paint45_linear_1687_22495" x1="5.98816" y1="111.139" x2="114.592" y2="110.352" gradientUnits="userSpaceOnUse">
<stop stop-color="white"/>
<stop offset="1" stop-color="white" stop-opacity="0.01"/>
</linearGradient>
<linearGradient id="paint46_linear_1687_22495" x1="5.98816" y1="111.139" x2="114.592" y2="110.352" gradientUnits="userSpaceOnUse">
<stop stop-color="white"/>
<stop offset="1" stop-color="white" stop-opacity="0.01"/>
</linearGradient>
<linearGradient id="paint47_linear_1687_22495" x1="5.98816" y1="111.139" x2="114.592" y2="110.352" gradientUnits="userSpaceOnUse">
<stop stop-color="white"/>
<stop offset="1" stop-color="white" stop-opacity="0.01"/>
</linearGradient>
<linearGradient id="paint48_linear_1687_22495" x1="5.98816" y1="111.139" x2="114.592" y2="110.352" gradientUnits="userSpaceOnUse">
<stop stop-color="white"/>
<stop offset="1" stop-color="white" stop-opacity="0.01"/>
</linearGradient>
<linearGradient id="paint49_linear_1687_22495" x1="5.98816" y1="111.139" x2="114.592" y2="110.352" gradientUnits="userSpaceOnUse">
<stop stop-color="white"/>
<stop offset="1" stop-color="white" stop-opacity="0.01"/>
</linearGradient>
<linearGradient id="paint50_linear_1687_22495" x1="5.98816" y1="111.139" x2="114.592" y2="110.352" gradientUnits="userSpaceOnUse">
<stop stop-color="white"/>
<stop offset="1" stop-color="white" stop-opacity="0.01"/>
</linearGradient>
<linearGradient id="paint51_linear_1687_22495" x1="5.98816" y1="111.139" x2="114.592" y2="110.352" gradientUnits="userSpaceOnUse">
<stop stop-color="white"/>
<stop offset="1" stop-color="white" stop-opacity="0.01"/>
</linearGradient>
<linearGradient id="paint52_linear_1687_22495" x1="5.98816" y1="111.139" x2="114.592" y2="110.352" gradientUnits="userSpaceOnUse">
<stop stop-color="white"/>
<stop offset="1" stop-color="white" stop-opacity="0.01"/>
</linearGradient>
<linearGradient id="paint53_linear_1687_22495" x1="5.98816" y1="111.139" x2="114.592" y2="110.352" gradientUnits="userSpaceOnUse">
<stop stop-color="white"/>
<stop offset="1" stop-color="white" stop-opacity="0.01"/>
</linearGradient>
<linearGradient id="paint54_linear_1687_22495" x1="5.98816" y1="111.139" x2="114.592" y2="110.352" gradientUnits="userSpaceOnUse">
<stop stop-color="white"/>
<stop offset="1" stop-color="white" stop-opacity="0.01"/>
</linearGradient>
<linearGradient id="paint55_linear_1687_22495" x1="5.98816" y1="111.139" x2="114.592" y2="110.352" gradientUnits="userSpaceOnUse">
<stop stop-color="white"/>
<stop offset="1" stop-color="white" stop-opacity="0.01"/>
</linearGradient>
<linearGradient id="paint56_linear_1687_22495" x1="5.98816" y1="111.139" x2="114.592" y2="110.352" gradientUnits="userSpaceOnUse">
<stop stop-color="white"/>
<stop offset="1" stop-color="white" stop-opacity="0.01"/>
</linearGradient>
<linearGradient id="paint57_linear_1687_22495" x1="5.98816" y1="111.139" x2="114.592" y2="110.352" gradientUnits="userSpaceOnUse">
<stop stop-color="white"/>
<stop offset="1" stop-color="white" stop-opacity="0.01"/>
</linearGradient>
<linearGradient id="paint58_linear_1687_22495" x1="5.98816" y1="111.139" x2="114.592" y2="110.352" gradientUnits="userSpaceOnUse">
<stop stop-color="white"/>
<stop offset="1" stop-color="white" stop-opacity="0.01"/>
</linearGradient>
<linearGradient id="paint59_linear_1687_22495" x1="5.98816" y1="111.139" x2="114.592" y2="110.352" gradientUnits="userSpaceOnUse">
<stop stop-color="white"/>
<stop offset="1" stop-color="white" stop-opacity="0.01"/>
</linearGradient>
<linearGradient id="paint60_linear_1687_22495" x1="5.98816" y1="111.139" x2="114.592" y2="110.352" gradientUnits="userSpaceOnUse">
<stop stop-color="white"/>
<stop offset="1" stop-color="white" stop-opacity="0.01"/>
</linearGradient>
<linearGradient id="paint61_linear_1687_22495" x1="5.98816" y1="111.139" x2="114.592" y2="110.352" gradientUnits="userSpaceOnUse">
<stop stop-color="white"/>
<stop offset="1" stop-color="white" stop-opacity="0.01"/>
</linearGradient>
<linearGradient id="paint62_linear_1687_22495" x1="5.98816" y1="111.139" x2="114.592" y2="110.352" gradientUnits="userSpaceOnUse">
<stop stop-color="white"/>
<stop offset="1" stop-color="white" stop-opacity="0.01"/>
</linearGradient>
<linearGradient id="paint63_linear_1687_22495" x1="5.98816" y1="111.139" x2="114.592" y2="110.352" gradientUnits="userSpaceOnUse">
<stop stop-color="white"/>
<stop offset="1" stop-color="white" stop-opacity="0.01"/>
</linearGradient>
<linearGradient id="paint64_linear_1687_22495" x1="5.98816" y1="111.139" x2="114.592" y2="110.352" gradientUnits="userSpaceOnUse">
<stop stop-color="white"/>
<stop offset="1" stop-color="white" stop-opacity="0.01"/>
</linearGradient>
<linearGradient id="paint65_linear_1687_22495" x1="5.98816" y1="111.139" x2="114.592" y2="110.352" gradientUnits="userSpaceOnUse">
<stop stop-color="white"/>
<stop offset="1" stop-color="white" stop-opacity="0.01"/>
</linearGradient>
<linearGradient id="paint66_linear_1687_22495" x1="5.98816" y1="111.139" x2="114.592" y2="110.352" gradientUnits="userSpaceOnUse">
<stop stop-color="white"/>
<stop offset="1" stop-color="white" stop-opacity="0.01"/>
</linearGradient>
<linearGradient id="paint67_linear_1687_22495" x1="5.98816" y1="111.139" x2="114.592" y2="110.352" gradientUnits="userSpaceOnUse">
<stop stop-color="white"/>
<stop offset="1" stop-color="white" stop-opacity="0.01"/>
</linearGradient>
<linearGradient id="paint68_linear_1687_22495" x1="5.98816" y1="111.139" x2="114.592" y2="110.352" gradientUnits="userSpaceOnUse">
<stop stop-color="white"/>
<stop offset="1" stop-color="white" stop-opacity="0.01"/>
</linearGradient>
<linearGradient id="paint69_linear_1687_22495" x1="5.98816" y1="111.139" x2="114.592" y2="110.352" gradientUnits="userSpaceOnUse">
<stop stop-color="white"/>
<stop offset="1" stop-color="white" stop-opacity="0.01"/>
</linearGradient>
<linearGradient id="paint70_linear_1687_22495" x1="5.98816" y1="111.139" x2="114.592" y2="110.352" gradientUnits="userSpaceOnUse">
<stop stop-color="white"/>
<stop offset="1" stop-color="white" stop-opacity="0.01"/>
</linearGradient>
<linearGradient id="paint71_linear_1687_22495" x1="5.98816" y1="111.139" x2="114.592" y2="110.352" gradientUnits="userSpaceOnUse">
<stop stop-color="white"/>
<stop offset="1" stop-color="white" stop-opacity="0.01"/>
</linearGradient>
<linearGradient id="paint72_linear_1687_22495" x1="5.98816" y1="111.139" x2="114.592" y2="110.352" gradientUnits="userSpaceOnUse">
<stop stop-color="white"/>
<stop offset="1" stop-color="white" stop-opacity="0.01"/>
</linearGradient>
<linearGradient id="paint73_linear_1687_22495" x1="5.98816" y1="111.139" x2="114.592" y2="110.352" gradientUnits="userSpaceOnUse">
<stop stop-color="white"/>
<stop offset="1" stop-color="white" stop-opacity="0.01"/>
</linearGradient>
<linearGradient id="paint74_linear_1687_22495" x1="5.98816" y1="111.139" x2="114.592" y2="110.352" gradientUnits="userSpaceOnUse">
<stop stop-color="white"/>
<stop offset="1" stop-color="white" stop-opacity="0.01"/>
</linearGradient>
<linearGradient id="paint75_linear_1687_22495" x1="5.98816" y1="111.139" x2="114.592" y2="110.352" gradientUnits="userSpaceOnUse">
<stop stop-color="white"/>
<stop offset="1" stop-color="white" stop-opacity="0.01"/>
</linearGradient>
<linearGradient id="paint76_linear_1687_22495" x1="5.98816" y1="111.139" x2="114.592" y2="110.352" gradientUnits="userSpaceOnUse">
<stop stop-color="white"/>
<stop offset="1" stop-color="white" stop-opacity="0.01"/>
</linearGradient>
<linearGradient id="paint77_linear_1687_22495" x1="5.98816" y1="111.139" x2="114.592" y2="110.352" gradientUnits="userSpaceOnUse">
<stop stop-color="white"/>
<stop offset="1" stop-color="white" stop-opacity="0.01"/>
</linearGradient>
<linearGradient id="paint78_linear_1687_22495" x1="5.98816" y1="111.139" x2="114.592" y2="110.352" gradientUnits="userSpaceOnUse">
<stop stop-color="white"/>
<stop offset="1" stop-color="white" stop-opacity="0.01"/>
</linearGradient>
<linearGradient id="paint79_linear_1687_22495" x1="5.98816" y1="111.139" x2="114.592" y2="110.352" gradientUnits="userSpaceOnUse">
<stop stop-color="white"/>
<stop offset="1" stop-color="white" stop-opacity="0.01"/>
</linearGradient>
<linearGradient id="paint80_linear_1687_22495" x1="5.98816" y1="111.139" x2="114.592" y2="110.352" gradientUnits="userSpaceOnUse">
<stop stop-color="white"/>
<stop offset="1" stop-color="white" stop-opacity="0.01"/>
</linearGradient>
<linearGradient id="paint81_linear_1687_22495" x1="5.98816" y1="111.139" x2="114.592" y2="110.352" gradientUnits="userSpaceOnUse">
<stop stop-color="white"/>
<stop offset="1" stop-color="white" stop-opacity="0.01"/>
</linearGradient>
<linearGradient id="paint82_linear_1687_22495" x1="5.98816" y1="111.139" x2="114.592" y2="110.352" gradientUnits="userSpaceOnUse">
<stop stop-color="white"/>
<stop offset="1" stop-color="white" stop-opacity="0.01"/>
</linearGradient>
<linearGradient id="paint83_linear_1687_22495" x1="5.98816" y1="111.139" x2="114.592" y2="110.352" gradientUnits="userSpaceOnUse">
<stop stop-color="white"/>
<stop offset="1" stop-color="white" stop-opacity="0.01"/>
</linearGradient>
<linearGradient id="paint84_linear_1687_22495" x1="5.98816" y1="111.139" x2="114.592" y2="110.352" gradientUnits="userSpaceOnUse">
<stop stop-color="white"/>
<stop offset="1" stop-color="white" stop-opacity="0.01"/>
</linearGradient>
<linearGradient id="paint85_linear_1687_22495" x1="5.98816" y1="111.139" x2="114.592" y2="110.352" gradientUnits="userSpaceOnUse">
<stop stop-color="white"/>
<stop offset="1" stop-color="white" stop-opacity="0.01"/>
</linearGradient>
<linearGradient id="paint86_linear_1687_22495" x1="5.98816" y1="111.139" x2="114.592" y2="110.352" gradientUnits="userSpaceOnUse">
<stop stop-color="white"/>
<stop offset="1" stop-color="white" stop-opacity="0.01"/>
</linearGradient>
<linearGradient id="paint87_linear_1687_22495" x1="5.98816" y1="111.139" x2="114.592" y2="110.352" gradientUnits="userSpaceOnUse">
<stop stop-color="white"/>
<stop offset="1" stop-color="white" stop-opacity="0.01"/>
</linearGradient>
<linearGradient id="paint88_linear_1687_22495" x1="5.98816" y1="111.139" x2="114.592" y2="110.352" gradientUnits="userSpaceOnUse">
<stop stop-color="white"/>
<stop offset="1" stop-color="white" stop-opacity="0.01"/>
</linearGradient>
<linearGradient id="paint89_linear_1687_22495" x1="5.98816" y1="111.139" x2="114.592" y2="110.352" gradientUnits="userSpaceOnUse">
<stop stop-color="white"/>
<stop offset="1" stop-color="white" stop-opacity="0.01"/>
</linearGradient>
<linearGradient id="paint90_linear_1687_22495" x1="5.98816" y1="111.139" x2="114.592" y2="110.352" gradientUnits="userSpaceOnUse">
<stop stop-color="white"/>
<stop offset="1" stop-color="white" stop-opacity="0.01"/>
</linearGradient>
<linearGradient id="paint91_linear_1687_22495" x1="5.98816" y1="111.139" x2="114.592" y2="110.352" gradientUnits="userSpaceOnUse">
<stop stop-color="white"/>
<stop offset="1" stop-color="white" stop-opacity="0.01"/>
</linearGradient>
<linearGradient id="paint92_linear_1687_22495" x1="5.98816" y1="111.139" x2="114.592" y2="110.352" gradientUnits="userSpaceOnUse">
<stop stop-color="white"/>
<stop offset="1" stop-color="white" stop-opacity="0.01"/>
</linearGradient>
<linearGradient id="paint93_linear_1687_22495" x1="5.98816" y1="111.139" x2="114.592" y2="110.352" gradientUnits="userSpaceOnUse">
<stop stop-color="white"/>
<stop offset="1" stop-color="white" stop-opacity="0.01"/>
</linearGradient>
<linearGradient id="paint94_linear_1687_22495" x1="5.98816" y1="111.139" x2="114.592" y2="110.352" gradientUnits="userSpaceOnUse">
<stop stop-color="white"/>
<stop offset="1" stop-color="white" stop-opacity="0.01"/>
</linearGradient>
<linearGradient id="paint95_linear_1687_22495" x1="5.98816" y1="111.139" x2="114.592" y2="110.352" gradientUnits="userSpaceOnUse">
<stop stop-color="white"/>
<stop offset="1" stop-color="white" stop-opacity="0.01"/>
</linearGradient>
</defs>
</svg>
