<svg width="842" height="370" viewBox="0 0 842 370" fill="none" xmlns="http://www.w3.org/2000/svg">
<path d="M63.8561 307.138H232.812V363.128H0V307.138L168.499 56.2211H7.69788V0.230957H232.355V56.2211L63.8561 307.138Z" fill="#212121" fill-opacity="0.59"/>
<path d="M437.526 78.001H488.705V363.128H437.526V315.949C418.201 351.55 390.573 369.351 354.642 369.351C327.162 369.351 305.572 359.498 289.872 339.793C274.171 320.088 266.321 292.788 266.321 257.894V78.001H317.5V246.04C317.5 290.957 335.313 313.421 370.94 313.43C392.085 313.43 408.467 305.739 420.086 290.356C431.705 274.974 437.518 253.461 437.526 225.817V78.001Z" fill="#212121" fill-opacity="0.59"/>
<path d="M569.583 123.835H564.781L581.744 363H530.208L547.171 123.835H542.453C541.468 123.846 540.492 123.641 539.579 123.233C538.666 122.825 537.836 122.221 537.135 121.456L528.275 111.836C527.555 111.058 526.983 110.128 526.592 109.101C526.201 108.074 526 106.971 526 105.857C526 104.743 526.201 103.64 526.592 102.613C526.983 101.587 527.555 100.657 528.275 99.8782L537.135 90.3115C538.553 88.7717 540.466 87.9166 542.453 87.9332H549.752L555.982 0L562.2 87.9332H569.559C571.544 87.9322 573.451 88.7851 574.877 90.3115L583.725 99.8782C584.445 100.657 585.017 101.587 585.408 102.613C585.799 103.64 586 104.743 586 105.857C586 106.971 585.799 108.074 585.408 109.101C585.017 110.128 584.445 111.058 583.725 111.836L574.877 121.456C573.46 122.982 571.561 123.836 569.583 123.835Z" fill="#212121" fill-opacity="0.59"/>
<path d="M790.809 78.001H841.988V363.128H790.809V315.949C771.477 351.55 743.849 369.351 707.925 369.351C680.438 369.351 658.847 359.498 643.155 339.793C627.463 320.088 619.613 292.788 619.604 257.894V78.001H670.783V246.04C670.783 290.957 688.596 313.421 724.223 313.43C745.368 313.43 761.75 305.739 773.369 290.356C784.988 274.974 790.801 253.461 790.809 225.817V78.001Z" fill="#212121" fill-opacity="0.59"/>
</svg>
