<svg width="37" height="37" viewBox="0 0 37 37" fill="none" xmlns="http://www.w3.org/2000/svg">
<path d="M18.5001 16.6501C19.1099 16.6501 19.706 16.4692 20.2131 16.1304C20.7201 15.7916 21.1153 15.3101 21.3487 14.7467C21.5821 14.1833 21.6431 13.5633 21.5242 12.9652C21.4052 12.3671 21.1115 11.8177 20.6803 11.3865C20.2491 10.9553 19.6997 10.6616 19.1016 10.5426C18.5035 10.4237 17.8835 10.4847 17.3201 10.7181C16.7567 10.9515 16.2752 11.3467 15.9364 11.8537C15.5976 12.3608 15.4167 12.9569 15.4167 13.5667C15.4167 14.3845 15.7416 15.1687 16.3198 15.747C16.8981 16.3252 17.6823 16.6501 18.5001 16.6501ZM17.4055 27.303C17.5488 27.4475 17.7193 27.5622 17.9072 27.6404C18.0951 27.7187 18.2966 27.759 18.5001 27.759C18.7036 27.759 18.9051 27.7187 19.093 27.6404C19.2808 27.5622 19.4513 27.4475 19.5947 27.303L25.9001 20.9821C27.3646 19.5184 28.3621 17.6532 28.7665 15.6225C29.1708 13.5917 28.9638 11.4867 28.1717 9.57363C27.3796 7.66055 26.0379 6.02537 24.3163 4.87489C22.5948 3.72442 20.5707 3.11035 18.5001 3.11035C16.4295 3.11035 14.4054 3.72442 12.6838 4.87489C10.9623 6.02537 9.6206 7.66055 8.82846 9.57363C8.03633 11.4867 7.82935 13.5917 8.2337 15.6225C8.63805 17.6532 9.63557 19.5184 11.1001 20.9821L17.4055 27.303ZM11.1463 12.8576C11.2517 11.7584 11.6011 10.6966 12.1693 9.74973C12.7374 8.80287 13.5098 7.99484 14.4301 7.38464C15.6391 6.59083 17.0538 6.16789 18.5001 6.16789C19.9464 6.16789 21.3611 6.59083 22.5701 7.38464C23.4842 7.99275 24.2523 8.79588 24.819 9.73627C25.3856 10.6767 25.7369 11.731 25.8475 12.8233C25.958 13.9157 25.8251 15.019 25.4584 16.0538C25.0916 17.0887 24.5001 18.0294 23.7263 18.8084L18.5001 24.0346L13.2738 18.8084C12.4992 18.037 11.9063 17.1026 11.5382 16.0732C11.1702 15.0437 11.0363 13.9452 11.1463 12.8576ZM29.2917 30.8334H7.70841C7.29954 30.8334 6.90741 30.9958 6.61829 31.2849C6.32917 31.574 6.16675 31.9662 6.16675 32.3751C6.16675 32.7839 6.32917 33.1761 6.61829 33.4652C6.90741 33.7543 7.29954 33.9167 7.70841 33.9167H29.2917C29.7006 33.9167 30.0928 33.7543 30.3819 33.4652C30.671 33.1761 30.8334 32.7839 30.8334 32.3751C30.8334 31.9662 30.671 31.574 30.3819 31.2849C30.0928 30.9958 29.7006 30.8334 29.2917 30.8334Z" fill="#FDF7F9"/>
</svg>
