<svg width="37" height="37" viewBox="0 0 37 37" fill="none" xmlns="http://www.w3.org/2000/svg">
<path d="M23.2021 7.70866C24.7079 8.00245 26.0918 8.73889 27.1766 9.82373C28.2615 10.9086 28.9979 12.2924 29.2917 13.7982M23.2021 1.54199C26.3306 1.88954 29.2479 3.29051 31.4751 5.51488C33.7022 7.73925 35.1069 10.6548 35.4584 13.7828M33.9167 26.0853V30.7103C33.9185 31.1397 33.8305 31.5647 33.6585 31.9581C33.4865 32.3515 33.2342 32.7046 32.9178 32.9949C32.6014 33.2851 32.2279 33.5061 31.8212 33.6437C31.4145 33.7812 30.9835 33.8323 30.5559 33.7937C25.8119 33.2782 21.255 31.6571 17.2513 29.0607C13.5264 26.6938 10.3683 23.5357 8.00129 19.8107C5.39584 15.7888 3.77441 11.2098 3.26837 6.44449C3.22985 6.01817 3.28051 5.5885 3.41714 5.18283C3.55378 4.77716 3.77338 4.40439 4.06197 4.08824C4.35056 3.77209 4.70182 3.5195 5.09338 3.34655C5.48495 3.17359 5.90823 3.08406 6.33629 3.08366H10.9613C11.7095 3.0763 12.4348 3.34124 13.0021 3.82911C13.5694 4.31697 13.9399 4.99447 14.0446 5.73533C14.2398 7.21543 14.6019 8.6687 15.1238 10.0674C15.3312 10.6192 15.3761 11.2189 15.2531 11.7954C15.1302 12.372 14.8445 12.9012 14.43 13.3203L12.4721 15.2782C14.6668 19.1379 17.8625 22.3336 21.7221 24.5282L23.68 22.5703C24.0992 22.1558 24.6284 21.8702 25.2049 21.7472C25.7815 21.6243 26.3812 21.6692 26.933 21.8766C28.3317 22.3985 29.7849 22.7605 31.265 22.9557C32.0139 23.0614 32.6979 23.4386 33.1868 24.0156C33.6757 24.5927 33.9355 25.3293 33.9167 26.0853Z" stroke="#F75D21" stroke-width="3" stroke-linecap="round" stroke-linejoin="round"/>
</svg>
