<svg width="56" height="56" viewBox="0 0 56 56" fill="none" xmlns="http://www.w3.org/2000/svg">
<path d="M2.32654 9.33301V23.333H16.3265" stroke="white" stroke-width="3" stroke-linecap="round" stroke-linejoin="round"/>
<path d="M8.1832 34.9997C9.69612 39.2939 12.5637 42.9801 16.3537 45.5029C20.1438 48.0257 24.6511 49.2484 29.1965 48.9868C33.7419 48.7252 38.0792 46.9935 41.5548 44.0525C45.0305 41.1115 47.4561 37.1207 48.4664 32.6812C49.4766 28.2418 49.0167 23.5943 47.156 19.439C45.2952 15.2836 42.1344 11.8456 38.1498 9.64283C34.1652 7.4401 29.5726 6.592 25.0641 7.22632C20.5556 7.86065 16.3753 9.94303 13.1532 13.1597L2.32654 23.3331" stroke="white" stroke-width="3" stroke-linecap="round" stroke-linejoin="round"/>
<path d="M24.9515 20.375L36.0349 27.5L24.9515 34.625V20.375Z" stroke="white" stroke-width="3" stroke-linecap="round" stroke-linejoin="round"/>
</svg>
